<?xml version="1.0" encoding="UTF-8"?>
<svg id="Layer_1" xmlns="http://www.w3.org/2000/svg" version="1.1" viewBox="0 0 440 440">
  <!-- Generator: Adobe Illustrator 29.5.1, SVG Export Plug-In . SVG Version: 2.1.0 Build 141)  -->
  <defs>
    <style>
      .st0 {
        fill: #231f20;
      }

      .st1 {
        fill: #fff;
      }
    </style>
  </defs>
  <g>
    <path class="st1" d="M127.8,48.2c-17-21.5-51.2-23.1-74.7-13.7-12.8,5.1-25.1,15-32.9,26.6-8.9,13.1-11.6,27.5-7.7,40.5.5,1.6,1.3,3.5,2.3,5.4,1.2,2.2,2.6,4.3,4,5.8,3.8,4.6,7.2,6.2,7.3,6.3h.3c0,.1,10.3-7.4,10.3-7.4l-.5-.4s-3.6-3.2-6.1-6.3h0c0-.1-.4.2-.4.2l.3-.5c-.5-.6-1-1.3-1.5-2.1-4-7.1-4.7-15-2-23.4,4.7-14.6,18.2-26.3,29.4-31.4,6.4-2.9,13.9-4.7,21.8-5.1-6.4,13-14.5,30.8-22.3,48-7,15.4-14.2,31.3-20.3,44.1l-8.6,17h17.2l2.9-6,7-13.7c25.8.4,46.1-5.6,62.1-18.5,18.9-15.2,29.5-43.3,12-65.4ZM60.7,117.9l33.4-74.1c11,2.3,19.4,7.5,23.9,14.7,4.1,6.6,4.8,14.8,2.2,24.2-6.7,24.2-35.4,35.2-59.5,35.2Z"/>
    <path class="st1" d="M235.8,79.4c5.5,0,9.9-4.4,9.9-9.9s-4.4-9.9-9.9-9.9-9.9,4.4-9.9,9.9,4.4,9.9,9.9,9.9Z"/>
    <path class="st1" d="M376.6,77.6l1.4-3.4c20-1.2,38.1-2.9,55.4-5.4h.5c0,0-1.1-7-1.1-7q-1.1-6.9-1.6-6.9c-15.1,2.3-30.6,4.2-47.5,5.6l5.1-12.2,5.8-13.5h-15.1l-6.2,14-5.9,12.9c-41.5,2.8-82.7,2.7-113.9,2.3h-.5s-.4,10.9-.4,10.9h.5c13.6.6,28.3.9,45,1,24.5,0,44.5-.2,62.8-1l-.4.8c-3.5,7.1-7.9,16.1-10.9,22.1-6.5,13.2-22.2,32-35.1,39-1.8,1-5.5,3-7.3,2-.6-.3-.9-.9-1-1.9-.3-3.9,5-13.8,9.2-21.7,2-3.8,3.8-7,4.7-9.2,3-7.2,3.1-13.1.1-17.1-2.9-4-8.4-5.7-16.1-5.1-13.9,1.1-25.5,14.3-34.1,24.3.6-1.7,1.6-3.6,2.5-5.6.7-1.4,1.3-2.8,1.9-4.2l7.3-15h-17.2l-8.8,16.9c-8.2,13.6-15.1,22.9-27.9,33.1-3.2,2.6-10,7.1-12.4,5.9-.7-.4-1-1.4-.9-3,.4-4.5,4.7-13.6,7.5-19.6.6-1.3,1.1-2.4,1.6-3.3,1-2.2,2.4-4.9,3.9-7.7l1.3-2.4c.6-1.2,1.2-2.3,1.8-3.4l8.5-16.4h-17.6v.2c-.2,0-3.4,4.8-8.8,9.5-5.8,4.6-13.1,8.4-21.7,11.4-.2-7.5-3.8-13.9-9.8-17.6-6.2-3.8-13.9-4.1-20.8-.9l-1.6-4.4h-.4c-3.8.9-7,2.3-9,3.4-.6.3-1.1.6-1.6.9l-.4.2c-.3.2-.5.3-.6.4-.6.4-1.3.9-1.8,1.3-9.4,6.7-16.8,15.7-20.3,24.6-4.7,11.8-3.8,23.6,2.5,31.6,5.5,7,14.5,10,25.3,8.4,16.5-2.4,30.3-14.9,37-33.6,7.8-2.2,14.7-5.4,20.6-9.6-.7,1.5-1.4,3.2-2.3,5-5.5,11.8-13.8,29.7-1.3,36.7,1.3.7,3.7,2,7.4,2,5.4,0,13.7-2.8,25.6-14.1,2.2-2.1,4.9-4.7,8.1-8.2l-9.1,21h18.6v-.3c.2,0,4.2-9.8,9.2-17.2,8.3-11.9,17.8-25.4,30-33.7,4.3-2.9,7.4-4.1,8.6-3.2.6.5,1.3,2.1-.9,7.6-.9,2.3-2.4,5.2-4.1,8.6-6.5,12.6-15.4,29.8-2.5,37.3,8.9,5.1,20.6-.4,27.9-6.7l11-10.6c-.9,4.9-1.1,13.8,6.7,17.6,12.3,5.9,30-4.7,51.4-30.6.3-.4.9-1.2,1.7-2.2,1.4-1.9,4.6-6.1,5.7-7.2.8,2.1,2.2,4.6,3.7,7.3,3.6,6.2,7.6,13.2,4.4,18.1-2.5,3.8-9.4,3.1-13.5,1.8-.3,0-.6-.2-.9-.3l-.4-.2c-.2,0-.4-.2-.6-.3-.7-.4-1.4-.8-2-1.2l-.6-.4c-2.9-1.8-5.2-3.8-5.2-3.9l-.4-.3-.3.3c-5.6,5.9-9.2,8.9-9.2,8.9l-.4.3.3.4c3.1,3.6,6.5,5.8,7.6,6.4l.3.2c.4.3.9.5,1.4.7,12.2,5.9,26.8,4.8,34.7-2.6,6.2-5.8,7.4-14.5,3.4-24.6-.8-2.1-2.5-5-4.3-8.1-2.6-4.6-5.6-9.7-5.8-12.2,0-.7,0-1.4.2-2.2h0c1.7-6,7.7-6.5,8-6.6h.5s-1.9-12.2-1.9-12.2h-.3c-15.1-3.2-22.4,14.4-22.4,14.5-.9,1.6-1.8,3-2.7,4.3-8.9,12.7-19.4,24.6-28.2,31.8-6.1,5-13.2,9.3-15.6,7.6-1-.7-1.7-2.9.8-9.6l24-51.7ZM167.3,97c.9-.3,1.8-.4,2.7-.4,1.8,0,3.5.6,4.9,1.9,2.4,2.2,3.6,6,2.9,9.4-2.2.9-6,.4-9.2-1.2-2.3-1.2-3.8-2.8-4-4.4-.3-2,.5-4.6,2.7-5.3ZM136.8,125.4c.5-7,5.5-15.6,10-20.7.9-1,3-3.2,4.1-3.9-.4,11.3,9.1,18.4,18.9,19.6.6,0,1.2,0,1.8,0,.6,0,1.1,0,1.6,0,0,0,.1,0,.2,0,.1.3-.2,1.1-1,2.4-.1.2-.2.3-.3.4h0c-2.2,3.9-5.9,8.2-9.3,10.7-6.9,5.1-15.7,6.7-20.8,3.9-3.8-2.1-5.6-6.4-5.2-12.5ZM148.2,86.6h0s0,0,0,0h0Z"/>
  </g>
  <g>
    <path class="st0" d="M221.5,171.3l4.3,15.8c.6,2.2,3.1,3.4,5.2,2.4l23.4-10.5,5.6-44.8-26.2,11.7,1.8,18.5-14.1,6.9Z"/>
    <path class="st0" d="M258.6,292.2c-4.3,0-7.8,3.5-7.8,7.8s3.5,7.8,7.8,7.8,7.8-3.5,7.8-7.8-3.5-7.8-7.8-7.8Z"/>
    <path class="st0" d="M421.3,288.3c-48.8,7.5-98.6,8.3-147.9,7.7l-.3,8.3c12.5.5,25,.7,37.5.8,37.6.1,75.2-.7,112.5-6,0,0-1.7-10.8-1.7-10.8Z"/>
    <path class="st0" d="M223.6,293l-26.3-114,22.9-10.7,12-5.9-1.6-15.1h0s-2.1-20.2-2.1-20.2c-.3-2.6-3-4.1-5.3-3l-41.8,20h0s0,0,0,0l34.4,149.1c-10.3.7-18,3.7-18,7.3s10.3,7.5,23.1,7.5,4.2-.1,6.2-.3l-3.4-14.6s0,0,0,0ZM199.5,143.1c3.7-4,10.4-6.8,15.6-4.2,5.4,2.6,6,9,3.8,13.7-1.9,3.9-5.2,6.9-10.1,9.2v3.1c0,0,0,1.5,0,1.5l-3.6,1.7v-4.3c0-3,0-6.7,0-10.2,0-3.9-.2-7.8-.2-10.9-1.3.8-2.5,1.7-3.4,2.8-1.6,2-3.1,5.4-2.7,8.5.2,1.8,1.1,3.2,2.4,4.1.1,0,.3.2.4.2v.3c0,0,0-.2,0-.2.7.3,1.7.6,1.7.6h.3c0,0-1.4,2.7-1.4,2.7h-.2s-.8,0-2-.5c-.4-.2-.9-.4-1.3-.8-.4-.3-.7-.6-1-.8-3.3-3.6-3.6-11,1.6-16.7Z"/>
    <path class="st0" d="M228.2,293.3l3.2,13.7c7.4-1.2,12.5-3.7,12.5-6.6s-6.6-6.1-15.7-7.1Z"/>
    <path class="st0" d="M216.5,146.3c-.4-2-1.2-3.4-2.5-4.3-1.4-.9-3.4-1.1-5.6-.6l.4,16.7c4.4-2.2,8.6-6.8,7.7-11.8Z"/>
  </g>
  <g>
    <path class="st0" d="M35.2,369c1.7-.5,3.2-1.2,4.5-2.1.4-.3.8-.6,1.2-1l.5,3.1h11v-26.6h-21.9v9.6h9.6c-.5,1.7-1.3,3.2-2.6,4.5-1.5,1.5-3.8,2.3-6.9,2.3s-4.1-.5-5.6-1.4c-1.5-.9-2.7-2.2-3.5-4-.9-1.8-1.3-4.1-1.3-6.8s.4-4.9,1.3-6.8c.8-1.8,2-3.2,3.6-4.2,1.6-1,3.6-1.5,6-1.5s3.8.4,5.1,1.2c1.2.8,2.1,1.8,2.6,3.2l.3.9h12.8l-.4-1.7c-1-4.6-3.4-8.3-7-10.9-3.6-2.6-8.1-3.9-13.5-3.9s-8.9,1-12.3,3.1c-3.4,2-6.1,4.9-8,8.5-1.8,3.5-2.8,7.7-2.8,12.2s.9,8.6,2.7,12c1.8,3.5,4.3,6.2,7.6,8.1,3.2,1.9,7,2.9,11.3,2.9s4-.2,5.6-.7Z"/>
    <path class="st0" d="M91.1,366.7c3.4-2,6.1-4.8,8-8.3,1.9-3.5,2.9-7.6,2.9-12.1s-1-8.6-2.9-12.1c-1.9-3.5-4.6-6.3-8-8.3-3.4-2-7.3-3-11.7-3s-8.3,1-11.7,3c-3.4,2-6,4.8-8,8.3-1.9,3.5-2.9,7.6-2.9,12.1s1,8.6,2.9,12.1c1.9,3.5,4.6,6.3,8,8.3,3.4,2,7.3,3,11.7,3s8.4-1,11.7-3ZM73.9,335.4c1.5-1,3.4-1.5,5.5-1.5s4.1.5,5.6,1.5c1.5,1,2.7,2.3,3.6,4.1.9,1.8,1.3,4.1,1.3,6.7s-.4,4.9-1.3,6.7c-.9,1.8-2,3.2-3.6,4.2-1.5,1-3.4,1.5-5.6,1.5s-4-.5-5.5-1.5c-1.6-1-2.7-2.4-3.6-4.2-.9-1.8-1.3-4.1-1.3-6.7s.4-4.9,1.3-6.7c.9-1.8,2-3.2,3.6-4.1Z"/>
    <polygon class="st0" points="136.1 359 117.8 359 117.8 323.6 105.9 323.6 105.9 368.9 136.1 368.9 136.1 359"/>
    <polygon class="st0" points="152.3 351.2 167.3 351.2 167.3 341.3 152.3 341.3 152.3 333.8 171.4 333.8 171.4 323.6 140.4 323.6 140.4 368.9 152.3 368.9 152.3 351.2"/>
    <path class="st0" d="M209.9,367.7c2.5-1.3,4.4-3,5.7-5.2,1.3-2.2,2-4.5,2-7.1s-.6-5.3-1.9-7.1c-1.2-1.8-2.8-3.2-4.8-4.3-1.9-1-4-1.9-6.2-2.7-1.3-.4-2.5-.8-3.6-1.2-1-.4-1.9-.8-2.7-1.2-.6-.4-1.1-.8-1.5-1.3-.3-.4-.4-.9-.4-1.5s.1-1.1.4-1.5c.3-.4.7-.7,1.2-.9.6-.2,1.2-.3,2-.3.8,0,1.4.2,2,.5.6.3,1.1.8,1.4,1.3.3.5.5,1,.5,1.6v1.4h12.7v-1.5c-.1-2.9-.9-5.4-2.4-7.5-1.5-2.1-3.4-3.7-5.9-4.8-2.4-1.1-5.2-1.6-8.3-1.6s-5.7.5-8.1,1.6c-2.5,1.1-4.4,2.7-5.8,4.7-1.4,2.1-2.2,4.6-2.2,7.5s1,6.3,3.1,8.4c2,2,4.8,3.6,8.3,4.8,1.4.4,2.7.9,4,1.3,1.2.4,2.3.9,3.2,1.4.8.4,1.4,1,1.8,1.5.4.5.5,1.1.5,1.9s-.1,1.3-.5,1.7c-.3.5-.8.8-1.4,1-.7.3-1.5.4-2.4.4s-2-.2-2.7-.6c-.7-.4-1.3-.9-1.7-1.6-.4-.7-.6-1.5-.7-2.4v-1.4h-12.6v1.5c.2,3.2,1.1,6,2.6,8.2,1.6,2.2,3.7,3.9,6.4,5.1,2.6,1.1,5.6,1.7,8.8,1.7s6.5-.6,9-1.9Z"/>
    <path class="st0" d="M256.2,365.5c3.6-2.8,5.9-6.6,6.7-11.5l.3-1.7h-12.7l-.3,1.1c-.4,1.7-1.2,2.9-2.5,3.8-1.3.9-3.1,1.4-5.3,1.4s-3.9-.5-5.3-1.4c-1.5-1-2.5-2.3-3.3-4.1-.8-1.9-1.2-4.1-1.2-6.7s.4-5,1.2-6.8c.8-1.8,1.9-3.2,3.3-4.1,1.4-1,3.2-1.5,5.3-1.5s4,.5,5.3,1.5c1.3,1,2.2,2.4,2.6,4.2l.2,1.1h12.7l-.3-1.6c-.8-5.1-3.1-9.2-6.7-12-3.6-2.8-8.2-4.2-13.7-4.2s-8.4,1-11.8,3c-3.3,2-5.9,4.8-7.7,8.3-1.8,3.5-2.6,7.6-2.6,12.1s.9,8.5,2.6,12c1.8,3.5,4.4,6.3,7.7,8.3,3.3,2,7.3,3,11.7,3s10.1-1.4,13.7-4.1Z"/>
    <path class="st0" d="M301,325.8c-3.4-2-7.3-3-11.7-3s-8.3,1-11.7,3c-3.4,2-6,4.8-8,8.3-1.9,3.5-2.9,7.6-2.9,12.1s1,8.6,2.9,12.1c1.9,3.5,4.6,6.3,8,8.3,3.4,2,7.3,3,11.7,3s8.4-1,11.7-3c3.4-2,6.1-4.8,8-8.3,1.9-3.5,2.9-7.6,2.9-12.1s-1-8.6-2.9-12.1c-1.9-3.5-4.6-6.3-8-8.3ZM294.9,357.1c-1.5,1-3.4,1.5-5.6,1.5s-3.9-.5-5.5-1.5c-1.6-1-2.7-2.4-3.6-4.2-.9-1.8-1.3-4.1-1.3-6.7s.4-4.9,1.3-6.7c.9-1.8,2-3.2,3.6-4.1,1.5-1,3.4-1.5,5.5-1.5s4.1.5,5.6,1.5c1.5,1,2.7,2.3,3.6,4.1.9,1.8,1.3,4.1,1.3,6.7s-.4,4.9-1.3,6.7c-.9,1.8-2,3.2-3.6,4.2Z"/>
    <path class="st0" d="M343.2,350.6c2.5-1.3,4.4-3.1,5.6-5.4,1.2-2.2,1.8-4.6,1.8-7s-.6-5.1-1.9-7.3c-1.2-2.2-3.1-4-5.6-5.3-2.5-1.3-5.6-2-9.3-2h-17.9v45.3h11.9v-16.3h3l7.5,16.3h13.5l-8.9-18.2c0,0,.2,0,.3-.1ZM327.7,334h5.4c1.9,0,3.3.4,4,1.2.8.8,1.2,1.9,1.2,3.4s-.4,2.6-1.2,3.4c-.8.8-2.1,1.2-4,1.2h-5.4v-9.2Z"/>
    <polygon class="st0" points="387.2 358.7 367.9 358.7 367.9 350.8 385.4 350.8 385.4 341 367.9 341 367.9 333.8 387.2 333.8 387.2 323.6 355.9 323.6 355.9 368.9 387.2 368.9 387.2 358.7"/>
    <path class="st0" d="M428.4,334.4c-1.7-3.4-4.3-6.1-7.8-8-3.4-1.9-7.8-2.8-12.9-2.8h-16.1v45.3h16.1c5.2,0,9.5-1,12.9-2.8,3.5-1.9,6.1-4.6,7.7-8.1,1.6-3.4,2.5-7.3,2.5-11.8s-.8-8.5-2.5-11.8ZM403.6,334.2h3.7c3,0,5.3.5,7,1.4,1.6.9,2.7,2.2,3.4,3.9.7,1.8,1.1,4.1,1.1,6.7s-.4,4.8-1.1,6.7c-.7,1.7-1.8,3-3.4,3.9-1.7.9-4,1.4-7,1.4h-3.7v-24.1Z"/>
    <path class="st0" d="M56.1,386.5c-3.4-1.9-7.8-2.8-12.9-2.8h-16.1v45.3h16.1c5.2,0,9.5-1,12.9-2.8,3.5-1.9,6.1-4.6,7.7-8.1,1.6-3.4,2.5-7.3,2.5-11.8s-.8-8.5-2.5-11.8c-1.7-3.4-4.3-6.1-7.8-8ZM39,394.3h3.7c3,0,5.3.5,7,1.4,1.6.9,2.7,2.2,3.4,3.9.7,1.8,1.1,4.1,1.1,6.7s-.4,4.8-1.1,6.7c-.7,1.7-1.8,3-3.4,3.9-1.7.9-4,1.4-7,1.4h-3.7v-24.1Z"/>
    <rect class="st0" x="70.3" y="383.7" width="11.9" height="45.3"/>
    <polygon class="st0" points="86.4 429 98.3 429 98.3 411.3 113.3 411.3 113.3 401.4 98.3 401.4 98.3 393.9 117.4 393.9 117.4 383.7 86.4 383.7 86.4 429"/>
    <polygon class="st0" points="121.8 429 133.7 429 133.7 411.3 148.7 411.3 148.7 401.4 133.7 401.4 133.7 393.9 152.8 393.9 152.8 383.7 121.8 383.7 121.8 429"/>
    <polygon class="st0" points="157.1 429 188.4 429 188.4 418.8 169.1 418.8 169.1 410.9 186.6 410.9 186.6 401.1 169.1 401.1 169.1 393.9 188.4 393.9 188.4 383.7 157.1 383.7 157.1 429"/>
    <path class="st0" d="M220.2,410.7c2.5-1.3,4.4-3.1,5.6-5.4,1.2-2.2,1.8-4.6,1.8-7s-.6-5.1-1.9-7.3c-1.2-2.2-3.1-4-5.6-5.3-2.5-1.3-5.6-2-9.3-2h-17.9v45.3h11.9v-16.3h3l7.5,16.3h13.5l-8.9-18.2c0,0,.2,0,.3-.1ZM204.8,394.1h5.4c1.9,0,3.3.4,4,1.2.8.8,1.2,1.9,1.2,3.4s-.4,2.6-1.2,3.4c-.8.8-2.1,1.2-4,1.2h-5.4v-9.2Z"/>
    <polygon class="st0" points="233 429 264.3 429 264.3 418.8 244.9 418.8 244.9 410.9 262.5 410.9 262.5 401.1 244.9 401.1 244.9 393.9 264.3 393.9 264.3 383.7 233 383.7 233 429"/>
    <polygon class="st0" points="296.4 408.3 279.9 383.7 268.7 383.7 268.7 429 280.6 429 280.6 404.4 297.1 429 308.4 429 308.4 383.7 296.4 383.7 296.4 408.3"/>
    <polygon class="st0" points="312.4 393.9 324.7 393.9 324.7 429 336.7 429 336.7 393.9 349 393.9 349 383.7 312.4 383.7 312.4 393.9"/>
    <polygon class="st0" points="364.9 383.7 353 383.7 353 429 383.3 429 383.3 419.1 364.9 419.1 364.9 383.7"/>
    <polygon class="st0" points="395 400.4 387.1 383.7 373.5 383.7 388.9 413.4 388.9 429 400.9 429 400.9 413.4 416.2 383.7 402.8 383.7 395 400.4"/>
  </g>
</svg>