<?xml version="1.0" encoding="UTF-8"?>
<svg id="Layer_1" xmlns="http://www.w3.org/2000/svg" version="1.1" viewBox="0 0 440 440">
  <!-- Generator: Adobe Illustrator 29.5.1, SVG Export Plug-In . SVG Version: 2.1.0 Build 141)  -->
  <defs>
    <style>
      .st0 {
        fill: #c2dd00;
      }
      .rotatingText {
      transform-origin: 220px 220px;
      animation: spin 20s linear infinite;
    }

    @keyframes spin {
      from {
        transform: rotate(0deg);
      }
      to {
        transform: rotate(360deg);
      }
    }
    </style>
  </defs>
  <g>
    <path d="M297.3,190.1l-.7-1.3c-3.3-6-7-15.8-7-15.8l-11.9,4.6c-4.8,17.9-26.5,29.8-26.5,29.8,0,0-12.4,7.1-27.1,15.7h0s-21.3,12.3-21.3,12.3h0c-6.2,3.6-12.1,7-16.8,9.7-21.1,12.2-22.6,21.5-22.6,21.5h0s0,0,0,0c0,0,1.1.4,3.5.4,4.3,0,12.8-1.4,26.5-9.3,7.7-4.5,18.5-10.7,29.1-16.8h0s14.7-8.4,14.7-8.4c0,0,0,0,0,0,12.1-7,21.5-12.4,21.5-12.4,0,0,15-9.1,30.4-9.1s5.8.3,8.6,1.1l9.9-8s-6.7-8.2-10.2-14Z"/>
    <path d="M201.2,228.7l14.7-8.5c-12.5-7.2-22.2-12.8-22.2-12.8,0,0-21.7-11.9-26.5-29.8l-11.9-4.6s-3.7,9.8-7,15.8l-.7,1.3c-3.5,5.9-10.2,14-10.2,14l9.9,8c2.8-.8,5.7-1.1,8.6-1.1,15.4,0,30.4,9.1,30.4,9.1,0,0,6.1,3.5,14.9,8.6Z"/>
    <path d="M258.8,245.1c-4.3-2.5-9.5-5.5-15.1-8.7l-14.7,8.5c8.3,4.8,16.4,9.4,22.5,13,13.6,7.9,22.1,9.3,26.5,9.3s3.5-.4,3.5-.4h0s0,0,0,0c0,0-1.5-9.3-22.6-21.5Z"/>
  </g>
  <g class="rotatingText">
    <path class="st0" d="M85.9,194.4c-.6,3.2-1.9,5.9-3.9,8.2-1.9,2.3-4.4,3.9-7.5,4.9-3.1,1-6.6,1.1-10.5.3l-11.1-2.2c-6-1.2-10.2-3.8-12.7-7.7-2.5-4-3.2-8.9-2.1-14.6,1.1-5.7,3.5-9.8,7.1-12.3,3.6-2.5,8-3.3,13.2-2.2h.3c0,0-1.7,8.7-1.7,8.7h-.5c-1.6-.4-3.2-.4-4.6,0-1.5.4-2.7,1.2-3.8,2.5-1,1.2-1.8,2.9-2.2,4.9-.6,3.1-.1,5.7,1.4,7.8,1.5,2.1,4,3.5,7.2,4.2l11.4,2.3c3.2.6,6,.3,8.3-1.1,2.3-1.4,3.8-3.7,4.4-6.8s.2-5.7-1.1-7.5c-1.4-1.8-3.4-2.9-5.9-3.4h-.7c0-.1-2.2,10.9-2.2,10.9l-7.4-1.5,3.9-19.6,23.7,4.7-1.6,8.1-4.4-.9-.2,1.2c.7.5,1.4,1.1,2.1,2,.7.9,1.2,2,1.5,3.5.3,1.5.2,3.4-.3,5.8Z"/>
    <path class="st0" d="M101.4,151.9c-2.9,5.2-6.7,8.5-11.2,9.9-4.6,1.5-9.5.7-14.8-2.3l-9.9-5.6c-5.3-3-8.5-6.8-9.6-11.5-1.1-4.7-.2-9.6,2.7-14.8s6.7-8.5,11.2-9.9c4.6-1.5,9.5-.7,14.8,2.3l9.9,5.6c5.3,3,8.5,6.8,9.6,11.5,1.1,4.7.2,9.6-2.7,14.8ZM94.5,148c1.6-2.9,2.1-5.6,1.3-8.2-.8-2.6-2.6-4.6-5.4-6.2l-10.3-5.8c-2.8-1.6-5.5-2.1-8.1-1.4-2.6.7-4.7,2.4-6.3,5.3-1.6,2.9-2,5.6-1.3,8.2.8,2.6,2.6,4.7,5.4,6.3l10.3,5.8c2.8,1.6,5.5,2.1,8.1,1.4,2.6-.7,4.7-2.4,6.3-5.3Z"/>
    <path class="st0" d="M115.3,129.1l-32.8-34,6.4-6.2,27.2,28.1,15.5-15,5.6,5.8-21.9,21.2Z"/>
    <path class="st0" d="M142.3,104.7l-23.1-41.2,25.9-14.5,4,7.1-18.1,10.2,5.6,10,16.7-9.4,4,7.1-16.7,9.4,9.6,17.1-7.8,4.4Z"/>
    <path class="st0" d="M209.2,81.8c-3.6.4-6.9,0-9.8-1-2.9-1-5.3-2.7-7.1-4.9-1.8-2.3-2.9-5.1-3.2-8.5l-.2-1.9,8.7-.8.2,1.9c.3,2.8,1.4,4.9,3.2,6.1s4.3,1.7,7.3,1.4c3-.3,5.3-1.1,6.6-2.5,1.4-1.4,2-3,1.8-4.9-.1-1.3-.6-2.3-1.4-3.1-.8-.7-2-1.3-3.4-1.7-1.5-.4-3.2-.7-5.3-.9l-1.6-.2c-3.3-.4-6.1-1-8.6-1.9-2.4-.9-4.3-2.1-5.7-3.8-1.4-1.7-2.2-3.9-2.5-6.8-.3-2.9.2-5.4,1.3-7.6,1.2-2.2,2.9-3.9,5.3-5.3,2.4-1.3,5.2-2.2,8.6-2.5,3.4-.3,6.4,0,9.1.8,2.7.9,5,2.4,6.7,4.5,1.7,2.1,2.7,4.9,3.1,8.3l.2,2-8.7.8-.2-2c-.2-1.8-.7-3.2-1.5-4.2-.8-1-1.9-1.7-3.2-2.1-1.3-.4-2.9-.5-4.7-.3-2.7.3-4.6,1-5.8,2.1s-1.7,2.6-1.5,4.3c.1,1.2.5,2.1,1.2,2.9.7.7,1.7,1.3,2.9,1.8,1.3.4,2.9.7,4.8,1l1.6.2c3.4.4,6.4,1,9,1.9,2.6.9,4.7,2.2,6.2,3.9,1.6,1.7,2.5,4,2.8,6.9.3,2.9-.2,5.5-1.5,7.8-1.2,2.3-3.1,4.2-5.7,5.7-2.5,1.5-5.6,2.4-9.3,2.8Z"/>
    <path class="st0" d="M250.6,84c-5.7-1.2-10-3.7-12.7-7.5-2.7-3.9-3.5-8.8-2.3-14.7l2.2-11.1c1.2-6,3.8-10.2,7.8-12.7,4-2.5,8.9-3.2,14.6-2.1,5.7,1.1,9.8,3.6,12.3,7.3s3.2,8.3,2.1,13.7v.4c0,0-8.7-1.7-8.7-1.7v-.7c.7-2.7.4-5.1-.8-7.2s-3.3-3.4-6.4-4.1c-3.1-.6-5.7-.2-7.9,1.4-2.1,1.5-3.5,3.9-4.2,7.2l-2.3,11.4c-.6,3.2-.3,6,1.1,8.2,1.4,2.3,3.6,3.7,6.7,4.3,3.1.6,5.6.2,7.5-1.3s3.1-3.6,3.6-6.3l.2-1.2,8.6,1.7-.2.9c-1.1,5.4-3.5,9.4-7.2,11.9-3.7,2.5-8.4,3.2-14.1,2Z"/>
    <path class="st0" d="M290.4,98.9c-5.2-2.9-8.5-6.7-10-11.2-1.5-4.6-.7-9.5,2.3-14.8l5.6-9.9c3-5.3,6.8-8.5,11.5-9.6,4.7-1.1,9.6-.2,14.8,2.7,5.2,2.9,8.5,6.7,10,11.2,1.5,4.6.7,9.5-2.3,14.8l-5.6,9.9c-3,5.3-6.8,8.5-11.5,9.6-4.7,1.1-9.6.2-14.8-2.7ZM294.3,92c2.9,1.6,5.6,2.1,8.2,1.3,2.6-.8,4.6-2.6,6.2-5.4l5.8-10.4c1.6-2.8,2.1-5.5,1.4-8.1-.7-2.6-2.4-4.7-5.3-6.3-2.9-1.6-5.6-2-8.2-1.3-2.6.8-4.7,2.6-6.2,5.4l-5.8,10.4c-1.6,2.8-2,5.5-1.4,8.1.7,2.6,2.4,4.7,5.3,6.3Z"/>
    <path class="st0" d="M313.3,112.5l34.6-32.2,14,15c2,2.2,3.4,4.4,4.2,6.7.7,2.3.8,4.6.3,6.7-.6,2.2-1.8,4.1-3.7,5.9l-.6.6c-2.1,1.9-4.2,3-6.4,3.2-2.2.2-4.3-.1-6.2-1l-.9.8c1.2,1.4,1.7,2.8,1.5,4.3-.2,1.5-.9,2.9-2.3,4.2l-11.3,10.5-6.1-6.5,10.4-9.7c.8-.7,1.2-1.5,1.4-2.4.1-.9-.3-1.8-1.2-2.7l-8.5-9.1-13,12.1-6.1-6.5ZM338.3,101.4l7.3,7.8c1.4,1.5,3,2.4,4.6,2.5s3.2-.5,4.6-1.8l.5-.5c1.4-1.3,2.1-2.8,2.1-4.4,0-1.6-.7-3.2-2.1-4.8l-7.3-7.8-9.7,9Z"/>
    <path class="st0" d="M340.8,144.4l42.2-21.3,13.7,27.1-7.2,3.6-9.7-19.2-10.1,5.1,8.8,17.5-7.2,3.6-8.8-17.5-10.4,5.3,9.9,19.5-7.2,3.6-13.9-27.5Z"/>
    <path class="st0" d="M356.6,176.4l7.7-1.4,1.1,6.1,31.1-5.5-1.1-6.1,7.7-1.4,3.4,19.1c1.1,6.2.4,11.3-2.2,15.1-2.6,3.8-7,6.3-13.3,7.4l-8.8,1.6c-6.2,1.1-11.2.3-15-2.4-3.7-2.7-6.2-7.2-7.3-13.4l-3.4-19.1ZM367.2,189.9l.8,4.4c.6,3.5,2,6,4.2,7.3s4.9,1.7,8.3,1.1l9.3-1.6c3.4-.6,5.9-1.9,7.4-3.9,1.5-2,2-4.7,1.4-8.3l-.8-4.4-30.6,5.4Z"/>
    <path class="st0" d="M361.7,242.4l7.5,2.3-1.8,5.9,30.2,9.2,1.8-5.9,7.5,2.3-5.7,18.6c-1.9,6.1-4.8,10.2-8.8,12.4s-9.1,2.4-15.2.6l-8.5-2.6c-6.1-1.9-10.2-4.8-12.3-8.9-2.1-4.1-2.2-9.2-.4-15.3l5.7-18.6ZM365.1,259.2l-1.3,4.3c-1.1,3.4-.9,6.2.4,8.4,1.3,2.1,3.6,3.7,6.9,4.7l9,2.8c3.3,1,6.1,1,8.4,0,2.3-1,3.9-3.3,5-6.7l1.3-4.3-29.7-9.1Z"/>
    <path class="st0" d="M345.8,285.9l40.9,23.6-4.5,7.7-40.9-23.6,4.5-7.7Z"/>
    <path class="st0" d="M336.5,301.8l35.6,31.1-19.6,22.4-6.1-5.3,13.7-15.6-8.6-7.5-12.6,14.4-6.1-5.3,12.6-14.4-14.8-12.9,5.9-6.7Z"/>
    <path class="st0" d="M312.1,328.1l26.6,39.1-24.6,16.7-4.6-6.7,17.2-11.7-6.4-9.4-15.9,10.8-4.6-6.7,15.9-10.8-11-16.2,7.4-5Z"/>
    <path class="st0" d="M281.8,347.3l15.5,44.6-28.7,10-2.7-7.6,20.3-7.1-3.7-10.6-18.5,6.4-2.7-7.6,18.5-6.4-3.8-11-20.7,7.2-2.7-7.6,29.1-10.1Z"/>
    <path class="st0" d="M246.6,358.7l2.4,47.2-20.5,1.1c-3,.2-5.6-.2-7.8-1.1-2.3-.9-4-2.3-5.4-4.1-1.3-1.8-2-4-2.2-6.6v-.8c-.2-2.8.4-5.2,1.6-7s2.9-3.2,4.8-4.1v-1.2c-1.9,0-3.3-.5-4.3-1.6-1-1.1-1.6-2.6-1.7-4.5l-.8-15.4,8.9-.5.7,14.2c0,1.1.4,1.9,1,2.6.6.6,1.5.9,2.8.9l12.4-.6-.9-17.8,8.9-.5ZM239.1,385l-10.7.6c-2.1.1-3.7.8-4.9,2-1.1,1.2-1.6,2.8-1.6,4.6v.7c.1,1.9.8,3.4,2,4.5,1.2,1.1,2.9,1.6,5.1,1.5l10.7-.6-.7-13.2Z"/>
    <path class="st0" d="M204.4,359.3l-10.7,46-29.6-6.9,1.8-7.9,20.9,4.9,2.6-11-19.1-4.4,1.8-7.9,19.1,4.4,2.7-11.4-21.3-5,1.8-7.9,30,7Z"/>
    <path class="st0" d="M168.5,350.3l-23.6,41-14.7-8.4,12.4-40.4-1.1-.6-20.5,35.7-7.6-4.4,23.6-41,14.7,8.4-12.4,40.4,1.1.6,20.5-35.7,7.6,4.4Z"/>
    <path class="st0" d="M123.3,318.6l-28.6,26.7,9.4,10.1-5.9,5.5-24.9-26.6,5.9-5.5,9.4,10.1,28.6-26.7,6.1,6.5Z"/>
    <path class="st0" d="M104.9,296.9l-41.9,21.9-4.1-7.9,34.7-18.1-10-19.1,7.2-3.8,14.1,27Z"/>
    <path class="st0" d="M88.2,259.4l-15.8,4.1-26,23.3-2.5-9.6,17.1-14.7-.3-1.2-22.1-4.6-2.5-9.6,34,7.8,15.8-4.1,2.2,8.6Z"/>
  </g>
</svg>