<?xml version="1.0" encoding="UTF-8"?><svg id="a" xmlns="http://www.w3.org/2000/svg" viewBox="0 0 415.98 415.99"><path d="M310.7,172.85c-.07-.09-7.33-8.98-11.06-15.17l-.77-1.34c-3.49-6.32-7.56-17.04-7.6-17.15l-2.68-7.09-7.07,2.72-13.7,5.27-3.58,1.38-.99,3.71c-2.33,8.7-9.28,16.18-14.71,20.93-6.25,5.47-12.02,8.7-12.08,8.73l-.06.03-.07.04-29.34,16.94-29.34-16.94-.07-.04-.07-.04s-5.82-3.25-12.07-8.72c-5.42-4.75-12.38-12.23-14.71-20.93l-.99-3.71-3.58-1.38-13.7-5.27-7.07-2.72-2.68,7.09c-.04.11-4.1,10.82-7.6,17.14l-.77,1.34c-3.73,6.19-10.99,15.08-11.06,15.17l-4.8,5.87,16.28,37.19,5.01,4.05,9.7,7.85,2.54,2.05,3.15-.84c2.07-.55,4.34-.83,6.78-.83,1.47,0,2.94.1,4.39.28-12.41,10.24-14.37,18.01-14.66,19.83l-.1.6v.6c0,.64.1,1.93.74,3.28h0l10.81,25c.14.53.37,1.12.74,1.7h0s0,0,0,0c.83,1.32,2.34,2.59,5.11,3.1,1.13.21,2.4.31,3.75.31,5.43,0,14.88-1.72,29.05-9.9l11-6.35,14.22-8.21,14.77,8.53,10.45,6.03c14.18,8.18,23.62,9.9,29.05,9.9,3.18,0,5.05-.59,5.71-.84l4.12-1.57,11.31-25.8v-5.19c0-.45-.22-9.07-14.73-21.03,1.45-.18,2.91-.28,4.37-.28,2.43,0,4.71.28,6.78.83l3.15.84,2.54-2.05,9.7-7.85,5.01-4.05,16.28-37.19-4.8-5.87Z"/><path d="M293.14,161.51l-.84-1.45c-3.81-6.88-8.09-18.19-8.09-18.19l-13.7,5.27c-5.52,20.59-30.42,34.31-30.42,34.31,0,0-14.2,8.2-31.18,18h0s-24.47,14.13-24.47,14.13h0c-7.19,4.14-13.92,8.03-19.33,11.16-24.29,14.02-26.02,24.76-26.02,24.76h0s0,0,0,0c0,0,1.29.49,4.04.49,4.98,0,14.77-1.61,30.41-10.64,8.87-5.12,21.27-12.28,33.44-19.3l.05.03,16.87-9.74s-.03-.02-.05-.03c13.95-8.05,24.67-14.25,24.67-14.25,0,0,17.25-10.43,35-10.43,3.33,0,6.67.37,9.92,1.24l11.41-9.23s-7.67-9.37-11.72-16.12Z" fill="#fff"/><path d="M182.56,205.94l16.87-9.74c-14.38-8.3-25.56-14.76-25.56-14.76,0,0-24.9-13.72-30.42-34.31l-13.7-5.27s-4.27,11.31-8.09,18.19l-.84,1.45c-4.05,6.75-11.72,16.12-11.72,16.12l11.41,9.23c3.25-.87,6.6-1.24,9.92-1.24,17.74,0,35,10.43,35,10.43,0,0,7.04,4.06,17.13,9.89Z" fill="#fff"/><path d="M248.86,224.73c-4.92-2.84-10.94-6.32-17.39-10.04l-16.87,9.74c9.58,5.53,18.81,10.86,25.83,14.91,15.64,9.03,25.43,10.64,30.41,10.64,2.75,0,4.04-.49,4.04-.49h0s0,0,0,0c0,0-1.73-10.74-26.02-24.76Z" fill="#fff"/><style>
.rotatingText {
  transform-origin: 50% 50%;
  transform-box: view-box;
  animation: rotateText 30s linear infinite;
}

@keyframes rotateText {
  from {
    transform: rotate(0deg);
  }
  to {
    transform: rotate(360deg);
  }
}
</style><g class="rotatingText"><text transform="translate(207.38 35.88) rotate(4.45)" fill="#c2dd00" font-family="SpaceGrotesk-Regular, &apos;Space Grotesk&apos;" font-size="42.89" font-variation-settings="&apos;wght&apos; 400"><tspan x="0" y="0">G</tspan></text><text transform="translate(233.74 37.76) rotate(13.33)" fill="#c2dd00" font-family="SpaceGrotesk-Regular, &apos;Space Grotesk&apos;" font-size="42.89" font-variation-settings="&apos;wght&apos; 400"><tspan x="0" y="0">O</tspan></text><text transform="translate(259.84 44) rotate(21.47)" fill="#c2dd00" font-family="SpaceGrotesk-Regular, &apos;Space Grotesk&apos;" font-size="42.89" font-variation-settings="&apos;wght&apos; 400"><tspan x="0" y="0">L</tspan></text><text transform="translate(280.05 51.85) rotate(28.69)" fill="#c2dd00" font-family="SpaceGrotesk-Regular, &apos;Space Grotesk&apos;" font-size="42.89" font-variation-settings="&apos;wght&apos; 400"><tspan x="0" y="0">F</tspan></text><text transform="translate(298.95 62.42) rotate(33.89)" fill="#c2dd00" font-family="SpaceGrotesk-Regular, &apos;Space Grotesk&apos;" font-size="42.89" font-variation-settings="&apos;wght&apos; 400"><tspan x="0" y="0"> </tspan></text><text transform="translate(307.05 67.31) rotate(39.56)" fill="#c2dd00" font-family="SpaceGrotesk-Regular, &apos;Space Grotesk&apos;" font-size="42.89" font-variation-settings="&apos;wght&apos; 400"><tspan x="0" y="0">S</tspan></text><text transform="translate(325.99 82.73) rotate(47.86)" fill="#c2dd00" font-family="SpaceGrotesk-Regular, &apos;Space Grotesk&apos;" font-size="42.89" font-variation-settings="&apos;wght&apos; 400"><tspan x="0" y="0">C</tspan></text><text transform="translate(343.36 101.64) rotate(56.57)" fill="#c2dd00" font-family="SpaceGrotesk-Regular, &apos;Space Grotesk&apos;" font-size="42.89" font-variation-settings="&apos;wght&apos; 400"><tspan x="0" y="0">O</tspan></text><text transform="translate(358.19 123.96) rotate(65.24)" fill="#c2dd00" font-family="SpaceGrotesk-Regular, &apos;Space Grotesk&apos;" font-size="42.89" font-variation-settings="&apos;wght&apos; 400"><tspan x="0" y="0">R</tspan></text><text transform="translate(368.79 146.88) rotate(73.23)" fill="#c2dd00" font-family="SpaceGrotesk-Regular, &apos;Space Grotesk&apos;" font-size="42.89" font-variation-settings="&apos;wght&apos; 400"><tspan x="0" y="0">E</tspan></text><text transform="translate(375.49 168.15) rotate(81.42)" fill="#c2dd00" font-family="SpaceGrotesk-Regular, &apos;Space Grotesk&apos;" font-size="42.89" font-variation-settings="&apos;wght&apos; 400"><tspan x="0" y="0">D</tspan></text><text transform="translate(379.12 194.73) rotate(87.45)" fill="#c2dd00" font-family="SpaceGrotesk-Regular, &apos;Space Grotesk&apos;" font-size="42.89" font-variation-settings="&apos;wght&apos; 400"><tspan x="0" y="0"> </tspan></text><text transform="translate(380.07 204.14) rotate(93.4)" fill="#c2dd00" font-family="SpaceGrotesk-Regular, &apos;Space Grotesk&apos;" font-size="42.89" font-variation-settings="&apos;wght&apos; 400"><tspan x="0" y="0">D</tspan></text><text transform="translate(378.1 230.92) rotate(99.35)" fill="#c2dd00" font-family="SpaceGrotesk-Regular, &apos;Space Grotesk&apos;" font-size="42.89" font-variation-settings="&apos;wght&apos; 400"><tspan x="0" y="0">I</tspan></text><text transform="translate(376.99 239.82) rotate(104.48)" fill="#c2dd00" font-family="SpaceGrotesk-Regular, &apos;Space Grotesk&apos;" font-size="42.89" font-variation-settings="&apos;wght&apos; 400"><tspan x="0" y="0">F</tspan></text><text transform="translate(371.74 260.6) rotate(111.69)" fill="#c2dd00" font-family="SpaceGrotesk-Regular, &apos;Space Grotesk&apos;" font-size="42.89" font-variation-settings="&apos;wght&apos; 400"><tspan x="0" y="0">F</tspan></text><text transform="translate(363.96 280.55) rotate(119.02)" fill="#c2dd00" font-family="SpaceGrotesk-Regular, &apos;Space Grotesk&apos;" font-size="42.89" font-variation-settings="&apos;wght&apos; 400"><tspan x="0" y="0">E</tspan></text><text transform="translate(353.3 300.22) rotate(126.95)" fill="#c2dd00" font-family="SpaceGrotesk-Regular, &apos;Space Grotesk&apos;" font-size="42.89" font-variation-settings="&apos;wght&apos; 400"><tspan x="0" y="0">R</tspan></text><text transform="translate(338.14 320.4) rotate(134.84)" fill="#c2dd00" font-family="SpaceGrotesk-Regular, &apos;Space Grotesk&apos;" font-size="42.89" font-variation-settings="&apos;wght&apos; 400"><tspan x="0" y="0">E</tspan></text><text transform="translate(322.58 336.45) rotate(142.96)" fill="#c2dd00" font-family="SpaceGrotesk-Regular, &apos;Space Grotesk&apos;" font-size="42.89" font-variation-settings="&apos;wght&apos; 400"><tspan x="0" y="0">N</tspan></text><text transform="translate(301.36 352.49) rotate(151.28)" fill="#c2dd00" font-family="SpaceGrotesk-Regular, &apos;Space Grotesk&apos;" font-size="42.89" font-variation-settings="&apos;wght&apos; 400"><tspan x="0" y="0">T</tspan></text><text transform="translate(280.83 363.81) rotate(158.83)" fill="#c2dd00" font-family="SpaceGrotesk-Regular, &apos;Space Grotesk&apos;" font-size="42.89" font-variation-settings="&apos;wght&apos; 400"><tspan x="0" y="0">L</tspan></text><text transform="translate(265.53 370.19) rotate(164.86)" fill="#c2dd00" font-family="SpaceGrotesk-Regular, &apos;Space Grotesk&apos;" font-size="42.89" font-variation-settings="&apos;wght&apos; 400"><tspan x="0" y="0">Y</tspan></text><text transform="translate(242.27 376.22) rotate(170.39)" fill="#c2dd00" font-family="SpaceGrotesk-Regular, &apos;Space Grotesk&apos;" font-size="42.89" font-variation-settings="&apos;wght&apos; 400"><tspan x="0" y="0"> </tspan></text><text transform="translate(233.54 377.84) rotate(174.09)" fill="#c2dd00" font-family="SpaceGrotesk-Regular, &apos;Space Grotesk&apos;" font-size="42.89" font-variation-settings="&apos;wght&apos; 400"><tspan x="0" y="0">•</tspan></text><text transform="translate(219.54 379.26) rotate(178.02)" fill="#c2dd00" font-family="SpaceGrotesk-Regular, &apos;Space Grotesk&apos;" font-size="42.89" font-variation-settings="&apos;wght&apos; 400"><tspan x="0" y="0"> </tspan></text><text transform="translate(210.1 380.12) rotate(-176.04)" fill="#c2dd00" font-family="SpaceGrotesk-Regular, &apos;Space Grotesk&apos;" font-size="42.89" font-variation-settings="&apos;wght&apos; 400"><tspan x="0" y="0">G</tspan></text><text transform="translate(183.75 378.46) rotate(-167.18)" fill="#c2dd00" font-family="SpaceGrotesk-Regular, &apos;Space Grotesk&apos;" font-size="42.89" font-variation-settings="&apos;wght&apos; 400"><tspan x="0" y="0">O</tspan></text><text transform="translate(157.57 372.45) rotate(-159.04)" fill="#c2dd00" font-family="SpaceGrotesk-Regular, &apos;Space Grotesk&apos;" font-size="42.89" font-variation-settings="&apos;wght&apos; 400"><tspan x="0" y="0">L</tspan></text><text transform="translate(137.29 364.79) rotate(-151.82)" fill="#c2dd00" font-family="SpaceGrotesk-Regular, &apos;Space Grotesk&apos;" font-size="42.89" font-variation-settings="&apos;wght&apos; 400"><tspan x="0" y="0">F</tspan></text><text transform="translate(118.31 354.38) rotate(-146.61)" fill="#c2dd00" font-family="SpaceGrotesk-Regular, &apos;Space Grotesk&apos;" font-size="42.89" font-variation-settings="&apos;wght&apos; 400"><tspan x="0" y="0"> </tspan></text><text transform="translate(110.17 349.56) rotate(-140.94)" fill="#c2dd00" font-family="SpaceGrotesk-Regular, &apos;Space Grotesk&apos;" font-size="42.89" font-variation-settings="&apos;wght&apos; 400"><tspan x="0" y="0">S</tspan></text><text transform="translate(91.09 334.31) rotate(-132.64)" fill="#c2dd00" font-family="SpaceGrotesk-Regular, &apos;Space Grotesk&apos;" font-size="42.89" font-variation-settings="&apos;wght&apos; 400"><tspan x="0" y="0">C</tspan></text><text transform="translate(73.56 315.55) rotate(-123.93)" fill="#c2dd00" font-family="SpaceGrotesk-Regular, &apos;Space Grotesk&apos;" font-size="42.89" font-variation-settings="&apos;wght&apos; 400"><tspan x="0" y="0">O</tspan></text><text transform="translate(58.54 293.38) rotate(-115.27)" fill="#c2dd00" font-family="SpaceGrotesk-Regular, &apos;Space Grotesk&apos;" font-size="42.89" font-variation-settings="&apos;wght&apos; 400"><tspan x="0" y="0">R</tspan></text><text transform="translate(47.73 270.54) rotate(-107.28)" fill="#c2dd00" font-family="SpaceGrotesk-Regular, &apos;Space Grotesk&apos;" font-size="42.89" font-variation-settings="&apos;wght&apos; 400"><tspan x="0" y="0">E</tspan></text><text transform="translate(40.84 249.33) rotate(-99.08)" fill="#c2dd00" font-family="SpaceGrotesk-Regular, &apos;Space Grotesk&apos;" font-size="42.89" font-variation-settings="&apos;wght&apos; 400"><tspan x="0" y="0">D</tspan></text><text transform="translate(36.97 222.78) rotate(-93.05)" fill="#c2dd00" font-family="SpaceGrotesk-Regular, &apos;Space Grotesk&apos;" font-size="42.89" font-variation-settings="&apos;wght&apos; 400"><tspan x="0" y="0"> </tspan></text><text transform="translate(35.94 213.37) rotate(-87.1)" fill="#c2dd00" font-family="SpaceGrotesk-Regular, &apos;Space Grotesk&apos;" font-size="42.89" font-variation-settings="&apos;wght&apos; 400"><tspan x="0" y="0">D</tspan></text><text transform="translate(37.68 186.58) rotate(-81.15)" fill="#c2dd00" font-family="SpaceGrotesk-Regular, &apos;Space Grotesk&apos;" font-size="42.89" font-variation-settings="&apos;wght&apos; 400"><tspan x="0" y="0">I</tspan></text><text transform="translate(38.71 177.65) rotate(-76.02)" fill="#c2dd00" font-family="SpaceGrotesk-Regular, &apos;Space Grotesk&apos;" font-size="42.89" font-variation-settings="&apos;wght&apos; 400"><tspan x="0" y="0">F</tspan></text><text transform="translate(43.78 156.84) rotate(-68.82)" fill="#c2dd00" font-family="SpaceGrotesk-Regular, &apos;Space Grotesk&apos;" font-size="42.89" font-variation-settings="&apos;wght&apos; 400"><tspan x="0" y="0">F</tspan></text><text transform="translate(51.39 136.81) rotate(-61.48)" fill="#c2dd00" font-family="SpaceGrotesk-Regular, &apos;Space Grotesk&apos;" font-size="42.89" font-variation-settings="&apos;wght&apos; 400"><tspan x="0" y="0">E</tspan></text><text transform="translate(61.86 117.07) rotate(-53.55)" fill="#c2dd00" font-family="SpaceGrotesk-Regular, &apos;Space Grotesk&apos;" font-size="42.89" font-variation-settings="&apos;wght&apos; 400"><tspan x="0" y="0">R</tspan></text><text transform="translate(76.84 96.75) rotate(-45.66)" fill="#c2dd00" font-family="SpaceGrotesk-Regular, &apos;Space Grotesk&apos;" font-size="42.89" font-variation-settings="&apos;wght&apos; 400"><tspan x="0" y="0">E</tspan></text><text transform="translate(92.26 80.57) rotate(-37.54)" fill="#c2dd00" font-family="SpaceGrotesk-Regular, &apos;Space Grotesk&apos;" font-size="42.89" font-variation-settings="&apos;wght&apos; 400"><tspan x="0" y="0">N</tspan></text><text transform="translate(113.34 64.34) rotate(-29.23)" fill="#c2dd00" font-family="SpaceGrotesk-Regular, &apos;Space Grotesk&apos;" font-size="42.89" font-variation-settings="&apos;wght&apos; 400"><tspan x="0" y="0">T</tspan></text><text transform="translate(133.78 52.84) rotate(-21.67)" fill="#c2dd00" font-family="SpaceGrotesk-Regular, &apos;Space Grotesk&apos;" font-size="42.89" font-variation-settings="&apos;wght&apos; 400"><tspan x="0" y="0">L</tspan></text><text transform="translate(149 46.33) rotate(-15.65)" fill="#c2dd00" font-family="SpaceGrotesk-Regular, &apos;Space Grotesk&apos;" font-size="42.89" font-variation-settings="&apos;wght&apos; 400"><tspan x="0" y="0">Y</tspan></text><text transform="translate(172.23 40.09) rotate(-10.12)" fill="#c2dd00" font-family="SpaceGrotesk-Regular, &apos;Space Grotesk&apos;" font-size="42.89" font-variation-settings="&apos;wght&apos; 400"><tspan x="0" y="0"> </tspan></text><text transform="translate(180.92 38.4) rotate(-6.42)" fill="#c2dd00" font-family="SpaceGrotesk-Regular, &apos;Space Grotesk&apos;" font-size="42.89" font-variation-settings="&apos;wght&apos; 400"><tspan x="0" y="0">•</tspan></text><text transform="translate(194.92 36.85) rotate(-2.48)" fill="#c2dd00" font-family="SpaceGrotesk-Regular, &apos;Space Grotesk&apos;" font-size="42.89" font-variation-settings="&apos;wght&apos; 400"><tspan x="0" y="0"> </tspan></text></g></svg>