<?xml version="1.0" encoding="UTF-8"?>
<svg id="Layer_1" xmlns="http://www.w3.org/2000/svg" version="1.1" viewBox="0 0 100 50">
  <!-- Generator: Adobe Illustrator 29.5.1, SVG Export Plug-In . SVG Version: 2.1.0 Build 141)  -->
  <defs>
    <style>
      .st0 {
        fill: #fff;
      }
    </style>
  </defs>
  <g>
    <path d="M9.1,15.3H1.6v19.9h6v-4.6h1.5c1.6,0,3-.3,4.2-.9s2.2-1.5,2.9-2.6c.7-1.2,1-2.6,1-4.3s-.3-3.1-1-4.3c-.7-1.2-1.7-2-2.9-2.6,0,0-1.4-.8-4.2-.8ZM7.7,21.2h1.3c.7,0,1.3.2,1.6.5s.5.7.5,1.3-.2,1-.5,1.3-.9.5-1.6.5h-1.3s0-3.6,0-3.6Z"/>
    <rect x="39.8" y="15.3" width="6" height="19.9"/>
    <polygon points="59.4 24.8 53.7 15.6 48.3 15.3 47 35.2 53 35.5 53.6 26.8 59.3 36 64.7 36.3 66 16.4 60 16 59.4 24.8"/>
    <polygon points="81.3 15.3 67.2 15.3 67.2 21.2 71.1 21.2 71.1 35.2 77.3 35.2 77.3 21.2 81.3 21.2 81.3 15.3"/>
    <path d="M97.8,19.1l-.3-.4c-.8-1-1.9-1.9-3.2-2.5-1.4-.6-3-.8-4.7-.6s-2.9.6-4.1,1.3c-1.1.7-1.9,1.6-2.5,2.6-.5,1-.8,2.3-.7,3.5s.4,2.1,1,2.9,1.3,1.6,2.5,2c1,.5,2.5.9,4.2,1.1.7.1,1.3.2,1.7.3.5.1.6.2.6.3,0,0,.1.2.1.3s0,.3-.2.5c-.2.2-.6.3-1.1.3s-1.4,0-2.1-.4-1.4-.8-1.8-1.3l-4.6,3,.2.4c.6.9,1.4,1.7,2.2,2.3s1.8,1,2.9,1.3c1,.3,2.2.3,3.4.2s2.9-.6,4.1-1.2c1.1-.7,1.9-1.6,2.5-2.6.6-1.1.8-2.3.7-3.5s-.5-2.3-1.1-3.2-1.4-1.5-2.6-1.9h0c-1-.5-2.5-.8-4.1-1-1.3-.2-1.9-.3-2.1-.5-.3-.2-.3-.3-.3-.4s0-.3.3-.4c.3-.2.6-.3,1.1-.3s1.2,0,1.9.1c.6.1,1.1.5,1.6.9l4.6-3.3h.1Z"/>
    <path d="M28.3,13.9c-5.8,0-10.4,4.7-10.4,10.4s4.7,10.4,10.4,10.4,10.4-4.7,10.4-10.4-4.7-10.4-10.4-10.4Z"/>
  </g>
  <g>
    <path class="st0" d="M34.7,23.3c.2,0,.5,0,.7,0l1-.9s-.8-.8-1.2-1.4h0c-.4-.7-.9-1.8-.9-1.8l-1.2.6c-.4,1.9-2.6,3.4-2.6,3.4,0,0-3.6,2.4-5.8,3.8-2.2,1.4-2.3,2.5-2.3,2.5,0,0,0,0,.3,0,.4,0,1.4-.2,2.9-1.2,2.2-1.4,5.8-3.8,5.8-3.8,0,0,1.7-1.2,3.4-1.2Z"/>
    <g>
      <path class="st0" d="M32.1,27c-.6-.4-1.2-.8-1.9-1.3l-1.4.9c.9.6,1.7,1.1,2.4,1.6,2.2,1.4,3.1,1.1,3.1,1.1,0,0,0-1-2.3-2.5Z"/>
      <path class="st0" d="M25.4,24.4s.4.3,1,.7l1.4-.9c-.9-.6-1.6-1.1-1.6-1.1,0,0-2.2-1.4-2.6-3.4l-1.2-.6s-.5,1-.9,1.6h0c-.4.7-1.2,1.6-1.2,1.6l1,.9c1.9-.4,4.1,1.1,4.1,1.1Z"/>
    </g>
  </g>
</svg>