<?xml version="1.0" encoding="UTF-8"?>
<svg id="Layer_1" xmlns="http://www.w3.org/2000/svg" version="1.1" viewBox="0 0 100 50">
  <!-- Generator: Adobe Illustrator 29.5.1, SVG Export Plug-In . SVG Version: 2.1.0 Build 141)  -->
  <path d="M28.5,20.9c0-1.3-.4-2.4-1-3.3-.6-.9-1.4-1.6-2.5-2.1-1-.5-2.2-.7-3.4-.6l-8.2.3.8,20.2h0c0,.1,3.9,0,3.9,0l-.3-7.5,4.3-.2c1.2,0,2.3-.3,3.3-.9,1-.5,1.8-1.3,2.3-2.3.6-1,.8-2.1.8-3.4v-.4ZM17.8,24.2l-.2-5.6h4c.9-.2,1.7,0,2.3.5.5.4.8,1.1.9,1.9v.3c0,.8-.2,1.5-.7,2-.5.5-1.3.8-2.2.8h-4Z"/>
  <path d="M42.3,23c-.7-1.1-1.6-1.9-2.8-2.5-1.2-.6-2.5-.8-3.9-.8-1.4,0-2.7.4-3.8,1.1-1.1.7-2,1.6-2.6,2.7-.6,1.1-.9,2.5-.8,4v.4c0,1.5.5,2.8,1.1,3.9.7,1.1,1.6,1.9,2.8,2.5,1,.5,2.2.8,3.5.8s.2,0,.4,0c1.4,0,2.7-.4,3.8-1,1.1-.6,2-1.6,2.6-2.7.6-1.1.9-2.5.8-4v-.4c0-1.5-.5-2.8-1.1-3.9ZM33.2,30.6c-.7-.7-1.1-1.7-1.2-3v-.2c0-1.3.3-2.3.9-3.1.7-.7,1.6-1.1,2.7-1.2,0,0,.1,0,.2,0,1.1,0,1.9.3,2.6,1,.7.7,1.1,1.7,1.2,3v.2c0,1.3-.3,2.3-.9,3.1-.7.7-1.6,1.1-2.7,1.2-1.1,0-2-.3-2.8-1Z"/>
  <path d="M45.7,18.6c.7,0,1.2-.3,1.6-.7.4-.4.6-1,.6-1.7,0-.7-.3-1.2-.7-1.6-.4-.4-1-.6-1.7-.6-.6,0-1.2.3-1.6.7-.4.4-.6,1-.6,1.7,0,.7.3,1.2.7,1.6.5.4,1,.6,1.7.6Z"/>
  <polygon points="47.6 19.6 43.8 19.8 44.4 34.2 44.4 34.4 48.1 34.2 47.6 19.8 47.6 19.6"/>
  <path d="M61.7,21.8c-.5-.9-1.3-1.6-2.2-2.1h0c-.9-.5-1.9-.7-3-.6-1.4,0-2.5.4-3.2.9-.4.3-.8.7-1.1,1.1v-1.6c0,0-3.8.1-3.8.1l.5,14.5h0c0,.1,3.8,0,3.8,0l-.3-7.4c0-1.4.2-2.4.8-3.1.6-.7,1.4-1.1,2.5-1.1.9,0,1.6.2,2.2.6.5.5.8,1.2.8,2.3l.3,8.4h3.8c0-.1-.3-8.8-.3-8.8,0-1.3-.3-2.3-.9-3.2Z"/>
  <path d="M72.9,18.7h-3.8c0,.1-.2-4.4-.2-4.4h-3.8c0,.1.2,4.7.2,4.7h-2.7c0,.1.1,3.4.1,3.4h2.7c0-.1.3,8,.3,8,0,1,.4,1.7,1,2.3.6.5,1.3.8,2.2.8s.1,0,.2,0h4c0-.1-.1-3.5-.1-3.5h-3c-.1.1-.2.1-.2,0,0,0,0-.2,0-.3l-.3-7.6h3.8c0-.1-.1-3.5-.1-3.5Z"/>
  <path d="M85.6,25.9c-.5-.6-1.3-1-2.2-1.3-.8-.3-1.8-.5-2.8-.6h-1c-.7-.2-1.2-.4-1.6-.6-.3-.2-.4-.4-.5-.8,0-.4.1-.6.4-.8.4-.3.9-.4,1.6-.4.7,0,1.3.1,1.8.4.4.3.7.7.9,1.4l3.6-.7v-.4c-.5-1.3-1.2-2.3-2.3-3-1.1-.7-2.5-1-4.1-1-1.7,0-3,.5-4.1,1.3-1,.8-1.6,2-1.5,3.4,0,1,.3,1.8.9,2.4.5.6,1.2,1.1,2,1.4.8.3,1.7.5,2.6.7h.9c.9.3,1.5.4,1.9.6.3.2.5.4.5.8,0,.4-.1.7-.5,1-.4.3-1,.5-1.8.5-.6,0-1.1,0-1.6-.2-.4-.1-.8-.4-1.1-.8-.3-.4-.6-.9-.7-1.6l-3.6.5v.4c.4,1.7,1.2,2.9,2.5,3.7,1.2.7,2.6,1.1,4.2,1.1s.3,0,.4,0c1.8,0,3.3-.5,4.3-1.4,1.1-.9,1.6-2.1,1.6-3.6,0-1-.3-1.9-.9-2.5Z"/>
</svg>