<?xml version="1.0" encoding="UTF-8"?>
<svg id="Layer_1" xmlns="http://www.w3.org/2000/svg" version="1.1" viewBox="0 0 100 50">
  <!-- Generator: Adobe Illustrator 29.5.1, SVG Export Plug-In . SVG Version: 2.1.0 Build 141)  -->
  <defs>
    <style>
      .st0 {
        fill: #fff;
      }
    </style>
  </defs>
  <polygon points="75.9 27.1 80.4 22.7 82.2 22.4 84.9 17.6 90.3 16.9 92.2 24.7 91 30.4 81.3 35.2 75.4 34 75.9 27.1"/>
  <polygon points="80.6 19.8 75.4 25.7 74.4 19 79.3 18.5 80.6 19.8"/>
  <g>
    <path d="M20.6,21.4h0c-1-.5-2.2-.7-3.5-.7h-6.4v16.9h5.2v-3.8h1.2c1.3,0,2.5-.2,3.5-.7,1-.5,1.8-1.2,2.4-2.2.6-1,.9-2.2.9-3.6s-.3-2.6-.9-3.6c-.6-1-1.4-1.7-2.4-2.2ZM15.8,25.7h1.1c.6,0,1.1.1,1.3.4.3.2.4.6.4,1.1s-.1.9-.4,1.1c-.3.3-.7.4-1.3.4h-1.1v-3Z"/>
    <rect x="42.1" y="20.6" width="5.2" height="16.9"/>
    <polygon points="57.8 28.1 52.5 20.6 47.9 20.6 47.9 37.5 53 37.5 53 30.1 58.3 37.5 62.9 37.5 62.9 20.6 57.8 20.6 57.8 28.1"/>
    <polygon points="75.4 20.6 63.4 20.6 63.4 25.7 66.8 25.7 66.8 37.5 72 37.5 72 25.7 75.4 25.7 75.4 20.6"/>
    <path d="M81.2,25.3c.2-.1.5-.2.9-.2s1,0,1.6.3c.5.2.9.5,1.2.9l.3.4,3.9-2.8-.2-.4c-.6-1-1.4-1.7-2.5-2.4-1.1-.6-2.4-.9-3.9-.9s-2.5.3-3.5.8c-1,.5-1.8,1.2-2.3,2.1-.5.9-.8,1.8-.8,2.9s.2,1.8.6,2.5c.4.8,1,1.4,1.9,1.9.9.5,2,.9,3.4,1.2.6.1,1.1.3,1.4.4.4.2.5.3.5.3,0,0,0,.2,0,.3s0,.2-.2.4c-.2.1-.5.2-.9.2-.6,0-1.2-.2-1.8-.5-.6-.3-1.1-.7-1.4-1.3l-.2-.4-3.9,2.6.2.4c.4.8,1,1.5,1.7,2.1.7.6,1.5,1,2.3,1.3.9.3,1.8.5,2.9.5s2.6-.2,3.6-.7c1-.5,1.8-1.1,2.4-2,.5-.8.8-1.8.8-2.9s-.2-2-.7-2.7c-.4-.7-1.1-1.4-2-1.9h0c-.9-.5-2-.9-3.4-1.2-1.1-.3-1.6-.4-1.8-.6-.2-.1-.3-.3-.3-.4s0-.2.2-.4Z"/>
    <path d="M33,20.3c-4.9,0-8.8,3.9-8.8,8.8s3.9,8.8,8.8,8.8,8.8-3.9,8.8-8.8-3.9-8.8-8.8-8.8ZM33,32.7c-2,0-3.7-1.6-3.7-3.7s1.6-3.7,3.7-3.7,3.7,1.6,3.7,3.7-1.6,3.7-3.7,3.7Z"/>
  </g>
  <g>
    <g>
      <path class="st0" d="M15.4,14.1h0c-1.2-.6-2.6-.9-4.2-.9H3.7v19.9h6.1v-4.5h1.4c1.6,0,3-.3,4.2-.9,1.2-.6,2.2-1.5,2.9-2.6.7-1.1,1-2.6,1-4.2s-.3-3.1-1-4.2c-.7-1.1-1.6-2-2.9-2.6ZM9.8,19.1h1.3c.7,0,1.2.2,1.6.4.3.3.5.7.5,1.3s-.2,1-.5,1.3c-.3.3-.9.4-1.6.4h-1.3v-3.5Z"/>
      <path d="M10.5,33.8H3.1V12.5h8.2c1.7,0,3.2.3,4.4.9h0c1.3.6,2.4,1.6,3.1,2.9.7,1.2,1.1,2.8,1.1,4.6s-.4,3.3-1.1,4.5c-.7,1.3-1.8,2.2-3.1,2.9-1.3.6-2.8.9-4.4.9h-.8v4.5ZM4.4,32.4h4.7v-4.5h2.1c1.5,0,2.8-.3,3.9-.8,1.1-.5,2-1.3,2.6-2.4.6-1,.9-2.3.9-3.9s-.3-2.8-.9-3.9c-.6-1-1.5-1.8-2.6-2.4h0c-1.1-.5-2.4-.8-3.9-.8h-6.8v18.6ZM11.1,23.3h-1.9v-4.8h1.9c.9,0,1.6.2,2,.6.5.4.7,1,.7,1.8s-.2,1.4-.7,1.8c-.5.4-1.1.6-2,.6ZM10.5,22h.6c.5,0,.9,0,1.1-.3,0,0,.3-.2.3-.8s-.2-.8-.3-.8c-.2-.2-.6-.3-1.1-.3h-.6v2.2Z"/>
    </g>
    <g>
      <rect class="st0" x="40.8" y="13.2" width="6.1" height="19.9"/>
      <path d="M47.5,33.8h-7.4V12.5h7.4v21.2ZM41.4,32.4h4.7V13.9h-4.7v18.6Z"/>
    </g>
    <g>
      <polygon class="st0" points="59.1 22 53 13.2 47.5 13.2 47.5 33.1 53.6 33.1 53.6 24.3 59.8 33.1 65.2 33.1 65.2 13.2 59.1 13.2 59.1 22"/>
      <path d="M65.9,33.8h-6.5l-5.2-7.4v7.4h-7.4V12.5h6.5l5.2,7.3v-7.3h7.4v21.2ZM60.1,32.4h4.5V13.9h-4.8v10.2l-7.2-10.2h-4.5v18.6h4.7v-10.2l7.2,10.2Z"/>
    </g>
    <g>
      <polygon class="st0" points="79.9 13.2 65.8 13.2 65.8 19.1 69.8 19.1 69.8 33.1 75.9 33.1 75.9 19.1 79.9 19.1 79.9 13.2"/>
      <path d="M76.6,33.8h-7.4v-14h-4v-7.2h15.5v7.2h-4v14ZM70.5,32.4h4.8v-14h4v-4.6h-12.8v4.6h4v14Z"/>
    </g>
    <g>
      <path class="st0" d="M86.7,18.7c.3-.2.6-.2,1.1-.2s1.2.1,1.9.3c.6.2,1.1.6,1.5,1l.3.4,4.6-3.3-.3-.4c-.7-1.1-1.7-2.1-3-2.8-1.3-.7-2.8-1.1-4.6-1.1s-3,.3-4.2.9c-1.2.6-2.1,1.4-2.7,2.4-.6,1-1,2.2-1,3.4s.2,2.1.7,3c.5.9,1.2,1.7,2.3,2.3,1,.6,2.4,1.1,4,1.5.7.2,1.3.3,1.7.5.4.2.6.3.6.4,0,0,.1.2.1.3s0,.3-.3.5c-.2.2-.6.2-1,.2-.7,0-1.4-.2-2.1-.6-.7-.4-1.3-.9-1.7-1.5l-.3-.4-4.6,3,.2.4c.5,1,1.2,1.8,2,2.5.8.7,1.7,1.2,2.7,1.6,1,.4,2.2.5,3.4.5s3-.3,4.2-.8c1.2-.6,2.1-1.3,2.8-2.3.6-1,1-2.1,1-3.4s-.3-2.3-.8-3.2c-.5-.9-1.3-1.6-2.4-2.2h0c-1-.6-2.4-1-3.9-1.4-1.3-.3-1.9-.5-2.1-.7-.3-.2-.3-.3-.3-.4s0-.3.3-.4Z"/>
      <path d="M88.1,34.3c-1.3,0-2.5-.2-3.6-.6-1.1-.4-2.1-1-3-1.7-.9-.7-1.6-1.6-2.1-2.7l-.5-1,4.4-2.9c-.1,0-.2-.1-.4-.2-1.2-.7-2-1.5-2.5-2.5-.5-1-.7-2.1-.7-3.3s.4-2.6,1.1-3.8c.7-1.1,1.7-2,3-2.7,1.3-.6,2.8-1,4.5-1s3.6.4,4.9,1.2c1.4.8,2.4,1.8,3.2,3l.6.9-4.7,3.4c.3.1.7.3,1,.5,1.2.6,2.1,1.5,2.6,2.5.6,1,.9,2.2.9,3.5s-.4,2.7-1.1,3.8c-.7,1.1-1.7,2-3,2.6-1.3.6-2.8.9-4.5.9ZM80.6,28.8c.5.9,1.1,1.6,1.8,2.2.7.6,1.6,1.1,2.5,1.5,1,.3,2,.5,3.2.5s2.8-.3,3.9-.8c1.1-.5,1.9-1.2,2.5-2.1.6-.9.9-1.9.9-3s-.2-2.1-.7-2.9c-.5-.8-1.2-1.4-2.1-2-1-.5-2.2-1-3.8-1.3-1.2-.3-1.9-.5-2.3-.7-.4-.2-.6-.6-.6-1s.2-.7.6-1c.4-.2.8-.3,1.4-.3s1.4.1,2.1.4c.7.2,1.3.6,1.7,1.2l3.6-2.6c-.6-1-1.5-1.8-2.7-2.4-1.2-.7-2.6-1-4.3-1s-2.8.3-3.9.8c-1.1.5-1.9,1.3-2.5,2.2-.6.9-.9,1.9-.9,3s.2,1.9.6,2.7c.4.8,1.1,1.4,2,2,.9.6,2.2,1,3.8,1.4.8.2,1.4.3,1.8.5.4.2.7.4.9.6.2.2.2.4.2.7,0,.4-.2.7-.5,1-.3.3-.8.4-1.5.4s-1.6-.2-2.4-.6c-.7-.4-1.4-.9-1.8-1.6l-3.6,2.3ZM86,26.5c.2.1.4.3.6.4.6.3,1.2.5,1.8.5s.4,0,.5,0c0,0-.1,0-.2,0-.2,0-.7-.3-1.5-.4-.4,0-.8-.2-1.2-.3ZM87.5,19.1c.3.1.8.2,1.6.4.4,0,.9.2,1.3.3-.2-.2-.5-.4-.8-.5-.6-.2-1.1-.3-1.6-.3s-.3,0-.3,0ZM87.1,19h0Z"/>
    </g>
    <g>
      <path class="st0" d="M30,12.8c-5.7,0-10.3,4.6-10.3,10.3s4.6,10.3,10.3,10.3,10.3-4.6,10.3-10.3-4.6-10.3-10.3-10.3ZM30,27.5c-2.4,0-4.3-1.9-4.3-4.3s1.9-4.3,4.3-4.3,4.3,1.9,4.3,4.3-1.9,4.3-4.3,4.3Z"/>
      <path d="M30,34.2c-6.1,0-11-4.9-11-11s4.9-11,11-11,11,4.9,11,11-4.9,11-11,11ZM30,13.5c-5.3,0-9.7,4.3-9.7,9.7s4.3,9.7,9.7,9.7,9.7-4.3,9.7-9.7-4.3-9.7-9.7-9.7ZM30,28.1c-2.7,0-5-2.2-5-5s2.2-5,5-5,5,2.2,5,5-2.2,5-5,5ZM30,19.5c-2,0-3.6,1.6-3.6,3.6s1.6,3.6,3.6,3.6,3.6-1.6,3.6-3.6-1.6-3.6-3.6-3.6Z"/>
    </g>
  </g>
  <polygon points="3.1 33.8 10.7 37.5 13.8 32.7 11.2 28.6 9.8 28.6 9.8 33.1 3.7 33.1 3.1 33.8"/>
  <polygon points="94.1 32.4 85.9 37.3 86 34.9 87.1 33.8 94.1 32.4"/>
  <polygon points="76.6 33.8 72 37.5 66.8 37.5 69.2 33.8 76.6 33.8"/>
  <polygon points="65.9 33.8 62.9 37.5 58.3 37.5 59.4 33.8 65.9 33.8"/>
  <polygon points="65.8 19.1 69.8 19.1 69.8 22 65.2 22.1 65.8 19.1"/>
  <polygon points="54.2 33.8 53 37.5 47.9 37.5 46.8 33.8 54.2 33.8"/>
  <polygon points="47.3 37.5 47.5 33.8 40.1 33.8 42.1 37.5 47.3 37.5"/>
  <path d="M9.8,19.1l2.8.4.7,2s-1.5,1.1-1.6,1.1-1.9,0-1.9,0v-3.5Z"/>
  <polygon points="15.4 27.7 18.6 24.9 19.3 26.8 18.2 29.7 14.8 29.5 15.4 27.7"/>
  <polygon points="25.9 21.5 27.8 19.1 30 18.8 32.3 19.5 33.4 22 33.6 25.4 31.9 27 28.5 27.5 25.9 24.6 25.9 21.5"/>
  <polygon points="22.5 31.2 27.1 35.7 37.3 34.5 29.3 33.5 24.2 31.7 22.5 31.2"/>
</svg>