<?xml version="1.0" encoding="UTF-8"?>
<svg id="Layer_1" xmlns="http://www.w3.org/2000/svg" version="1.1" viewBox="0 0 100 50">
  <!-- Generator: Adobe Illustrator 29.5.1, SVG Export Plug-In . SVG Version: 2.1.0 Build 141)  -->
  <path d="M28.6,13.7c-3.7-4.7-11.1-5-16.3-3-2.8,1.1-5.5,3.3-7.2,5.8-1.9,2.9-2.5,6-1.7,8.8.1.4.3.8.5,1.2.3.5.6.9.9,1.3.8,1,1.6,1.3,1.6,1.4h0s2.2-1.6,2.2-1.6h0c0,0-.8-.8-1.3-1.5h0s0,0,0,0h0c-.1-.2-.2-.4-.3-.6-.9-1.6-1-3.3-.4-5.1,1-3.2,4-5.7,6.4-6.8,1.4-.6,3-1,4.8-1.1-1.4,2.8-3.2,6.7-4.8,10.5-1.5,3.4-3.1,6.8-4.4,9.6l-1.9,3.7h3.8l.6-1.3,1.5-3c5.6,0,10-1.2,13.5-4,4.1-3.3,6.4-9.4,2.6-14.2ZM14,28.9l7.3-16.1c2.4.5,4.2,1.6,5.2,3.2.9,1.4,1,3.2.5,5.3-1.5,5.3-7.7,7.7-13,7.7Z"/>
  <path d="M52.1,20.5c1.2,0,2.2-1,2.2-2.2s-1-2.2-2.2-2.2-2.2,1-2.2,2.2,1,2.2,2.2,2.2Z"/>
  <path d="M82.7,20.1l.3-.7c4.3-.3,8.3-.6,12.1-1.2h.1s-.2-1.5-.2-1.5q-.2-1.5-.3-1.5c-3.3.5-6.7.9-10.3,1.2l1.1-2.6,1.3-2.9h-3.3l-1.4,3.1-1.3,2.8c-9,.6-18,.6-24.8.5h-.1s0,2.4,0,2.4h.1c3,.1,6.2.2,9.8.2,5.3,0,9.7,0,13.7-.2v.2c-.8,1.5-1.8,3.5-2.4,4.8-1.4,2.9-4.8,7-7.6,8.5-.4.2-1.2.6-1.6.4-.1,0-.2-.2-.2-.4,0-.8,1.1-3,2-4.7.4-.8.8-1.5,1-2,.7-1.6.7-2.8,0-3.7-.6-.9-1.8-1.2-3.5-1.1-3,.2-5.6,3.1-7.4,5.3.1-.4.3-.8.5-1.2.1-.3.3-.6.4-.9l1.6-3.3h-3.7l-1.9,3.7c-1.8,3-3.3,5-6.1,7.2-.7.6-2.2,1.6-2.7,1.3-.2,0-.2-.3-.2-.6,0-1,1-3,1.6-4.3.1-.3.2-.5.3-.7.2-.5.5-1.1.9-1.7l.3-.5c.1-.3.3-.5.4-.7l1.9-3.6h-3.9c0,0-.7,1.1-1.9,2.1-1.3,1-2.9,1.8-4.7,2.5,0-1.6-.8-3-2.1-3.8-1.3-.8-3-.9-4.5-.2l-.3-1h0c-.8.2-1.5.5-2,.7-.1,0-.2.1-.4.2h0c0,0-.1.1-.1.1-.1,0-.3.2-.4.3-2,1.5-3.7,3.4-4.4,5.4-1,2.6-.8,5.1.5,6.9,1.2,1.5,3.2,2.2,5.5,1.8,3.6-.5,6.6-3.3,8-7.3,1.7-.5,3.2-1.2,4.5-2.1-.1.3-.3.7-.5,1.1-1.2,2.6-3,6.5-.3,8,.3.2.8.4,1.6.4,1.2,0,3-.6,5.6-3.1.5-.5,1.1-1,1.8-1.8l-2,4.6h4.1c0,0,.9-2.2,2-3.8,1.8-2.6,3.9-5.5,6.5-7.3.9-.6,1.6-.9,1.9-.7.1.1.3.5-.2,1.6-.2.5-.5,1.1-.9,1.9-1.4,2.7-3.3,6.5-.6,8.1,1.9,1.1,4.5,0,6.1-1.4l2.4-2.3c-.2,1.1-.2,3,1.5,3.8,2.7,1.3,6.5-1,11.2-6.7,0,0,.2-.3.4-.5.3-.4,1-1.3,1.2-1.6.2.5.5,1,.8,1.6.8,1.4,1.7,2.9,1,3.9-.5.8-2.1.7-2.9.4,0,0-.1,0-.2,0h0c0,0,0,0-.1-.1-.2,0-.3-.2-.4-.3h-.1c-.6-.5-1.1-.9-1.1-.9h0c0,0,0,0,0,0-1.2,1.3-2,1.9-2,1.9h0c0,0,0,.2,0,.2.7.8,1.4,1.3,1.7,1.4h0c0,0,.2.1.3.2,2.6,1.3,5.8,1,7.6-.6,1.4-1.3,1.6-3.2.7-5.4-.2-.5-.6-1.1-.9-1.8-.6-1-1.2-2.1-1.3-2.7,0-.2,0-.3,0-.5h0c.4-1.3,1.7-1.4,1.7-1.4h.1s-.4-2.7-.4-2.7h0c-3.3-.7-4.9,3.1-4.9,3.1-.2.3-.4.7-.6.9-1.9,2.8-4.2,5.4-6.1,6.9-1.3,1.1-2.9,2-3.4,1.7-.2-.2-.4-.6.2-2.1l5.2-11.3ZM37.2,24.3c.2,0,.4,0,.6,0,.4,0,.8.1,1.1.4.5.5.8,1.3.6,2.1-.5.2-1.3,0-2-.3-.5-.3-.8-.6-.9-1,0-.4.1-1,.6-1.2ZM30.5,30.5c.1-1.5,1.2-3.4,2.2-4.5.2-.2.7-.7.9-.9,0,2.5,2,4,4.1,4.3.1,0,.3,0,.4,0,.1,0,.2,0,.3,0,0,0,0,0,0,0,0,0,0,.2-.2.5,0,0,0,0,0,0h0c-.5.8-1.3,1.8-2,2.3-1.5,1.1-3.4,1.5-4.5.8-.8-.5-1.2-1.4-1.1-2.7ZM33,22.1h0s0,0,0,0h0Z"/>
</svg>