<?xml version="1.0" encoding="UTF-8"?>
<svg id="Layer_1" xmlns="http://www.w3.org/2000/svg" version="1.1" viewBox="0 0 100 50">
  <!-- Generator: Adobe Illustrator 29.5.1, SVG Export Plug-In . SVG Version: 2.1.0 Build 141)  -->
  <path d="M13.2,21.9c0-1-.2-1.9-.7-2.6-.4-.7-1.1-1.3-1.9-1.7-.8-.4-1.7-.6-2.7-.6H1.5v16.1h2.9v-6h3.5c1,0,1.9-.2,2.6-.6.8-.4,1.4-1,1.9-1.7.5-.7.7-1.6.7-2.6v-.3ZM10.2,22.1c0,.7-.2,1.2-.7,1.6-.5.4-1.1.6-1.8.6h-3.3v-4.7h3.3c.8,0,1.4.2,1.8.6.4.4.7.9.7,1.6v.2Z"/>
  <path d="M22,22c-.9-.5-1.9-.7-3.1-.7s-2.2.2-3.1.7c-.9.5-1.6,1.2-2.1,2-.5.9-.8,1.9-.8,3.1v.3c0,1.2.3,2.3.8,3.1.5.9,1.2,1.6,2.1,2,.9.5,1.9.7,3,.7s2.2-.2,3.1-.7c.9-.5,1.6-1.2,2.1-2,.5-.9.8-1.9.8-3.1v-.3c0-1.2-.3-2.2-.8-3.1-.5-.9-1.2-1.6-2.1-2ZM22.1,27.4c0,1.1-.3,1.9-.9,2.5-.6.6-1.3.9-2.3.9s-1.7-.3-2.2-.9c-.6-.6-.9-1.4-.9-2.5v-.2c0-1.1.3-1.9.9-2.5.6-.6,1.3-.9,2.2-.9s1.7.3,2.3.9c.6.6.9,1.4.9,2.5v.2Z"/>
  <path d="M27.1,17c-.5,0-1,.2-1.3.5-.4.3-.5.8-.5,1.3s.2,1,.5,1.3c.4.3.8.5,1.3.5s1-.2,1.3-.5c.3-.3.5-.8.5-1.3s-.2-1-.5-1.3c-.3-.3-.8-.5-1.3-.5Z"/>
  <rect x="25.6" y="21.6" width="2.8" height="11.5"/>
  <path d="M38,22c-.7-.4-1.5-.6-2.3-.6s-2,.2-2.5.6c-.5.3-.8.7-1,1.1v-1.5h-2.8v11.5h2.8v-5.8c0-1.1.3-2,.8-2.5.5-.6,1.2-.8,2.1-.8s1.3.2,1.8.6c.4.4.6,1,.6,1.9v6.7h2.8v-6.8c0-1-.2-1.9-.6-2.6-.4-.7-.9-1.3-1.6-1.7Z"/>
  <path d="M45.7,17.9h-2.8v3.6h-2.2v2.5h2.2v6.6c0,.7.2,1.3.7,1.8.4.5,1,.7,1.8.7h3.1v-2.5h-2.3c-.2,0-.4,0-.4-.4v-6.2h3.1v-2.5h-3.1v-3.6Z"/>
  <path d="M57,26.6c-.7-.2-1.4-.4-2.2-.6h-.8c-.6-.2-1-.4-1.3-.6-.3-.2-.4-.4-.4-.8s.1-.6.4-.7c.3-.2.8-.3,1.3-.3s1.1.1,1.5.4c.4.2.6.6.7,1.2v.3c0,0,2.7-.7,2.7-.7v-.2c-.3-1-.9-1.8-1.7-2.4-.8-.6-1.9-.9-3.2-.9s-2.4.3-3.2.9c-.8.6-1.3,1.5-1.3,2.6s.2,1.4.6,1.9c.4.5.9.9,1.6,1.1.6.3,1.3.5,2.1.6h.8c.7.3,1.2.4,1.6.6.3.2.4.4.4.7s-.2.6-.5.9c-.3.2-.9.4-1.5.4s-.9,0-1.3-.2c-.4-.1-.7-.4-.9-.7-.3-.3-.4-.8-.5-1.3v-.3c0,0-2.7.6-2.7.6v.2c.3,1.3.9,2.3,1.8,3,1,.6,2.2,1,3.6,1s2.6-.3,3.4-1c.9-.7,1.3-1.6,1.3-2.8s-.2-1.5-.6-2c-.4-.5-1-.8-1.7-1.1Z"/>
  <path d="M67,16.6c-2,0-3.5.6-4.7,1.7-1.2,1.1-1.7,2.8-1.7,4.8v3.6c0,1.4.3,2.6.8,3.6.5,1,1.3,1.7,2.2,2.2.9.5,2,.8,3.1.8s1.5-.1,2-.3c.5-.2.9-.5,1.2-.8.2-.2.4-.4.5-.7v1.5h2.8v-8.2h-7.1v2.6h4.2c0,1-.3,1.8-.8,2.4-.5.6-1.3.9-2.4.9s-2-.3-2.6-1c-.6-.7-.9-1.6-.9-2.8v-3.7c0-1.2.3-2.1.9-2.8.6-.7,1.5-1,2.6-1s1.3.1,1.8.4c.5.3.8.6,1,1.1.2.5.4,1,.4,1.6v.4h2.9v-.4c0-1.8-.5-3.2-1.6-4.3-1.1-1.1-2.6-1.6-4.5-1.6Z"/>
  <path d="M82.8,22c-.9-.5-1.9-.7-3.1-.7s-2.2.2-3,.7c-.9.5-1.6,1.2-2.1,2-.5.9-.8,1.9-.8,3.1v.3c0,1.2.3,2.3.8,3.1.5.9,1.2,1.6,2.1,2,.9.5,1.9.7,3,.7s2.2-.2,3.1-.7c.9-.5,1.6-1.2,2.1-2,.5-.9.8-1.9.8-3.1v-.3c0-1.2-.3-2.2-.8-3.1-.5-.9-1.2-1.6-2.1-2ZM82.9,27.4c0,1.1-.3,1.9-.9,2.5-.6.6-1.3.9-2.3.9s-1.7-.3-2.2-.9c-.6-.6-.9-1.4-.9-2.5v-.2c0-1.1.3-1.9.9-2.5.6-.6,1.3-.9,2.2-.9s1.7.3,2.3.9c.6.6.9,1.4.9,2.5v.2Z"/>
  <rect x="86.7" y="17" width="2.8" height="16.1"/>
  <path d="M95.9,21.6v-1.7c0-.3,0-.4.4-.4h2.4v-2.5h-3.1c-.7,0-1.3.2-1.8.7s-.7,1.1-.7,1.8v2.1h-2.6v2.5h2.6v9h2.8v-9h2.7v-2.5h-2.7Z"/>
</svg>