<?xml version="1.0" encoding="UTF-8"?>
<svg id="Layer_1" xmlns="http://www.w3.org/2000/svg" version="1.1" viewBox="0 0 100 50">
  <!-- Generator: Adobe Illustrator 29.5.1, SVG Export Plug-In . SVG Version: 2.1.0 Build 141)  -->
  <path d="M15.1,16.5h0c-1.2-.6-2.6-.9-4.2-.9H3.3v20.1h6.1v-4.6h1.5c1.6,0,3-.3,4.2-.9,1.2-.6,2.2-1.5,2.9-2.6.7-1.2,1-2.6,1-4.3s-.3-3.1-1-4.3c-.7-1.2-1.7-2-2.9-2.6ZM9.5,21.6h1.3c.7,0,1.3.2,1.6.5.3.3.5.7.5,1.3s-.2,1-.5,1.3c-.3.3-.9.5-1.6.5h-1.3v-3.6Z"/>
  <rect x="40.8" y="15.6" width="6.1" height="20.1"/>
  <polygon points="59.4 24.5 53.1 15.6 47.6 15.6 47.6 35.7 53.7 35.7 53.7 26.9 60 35.7 65.5 35.7 65.5 15.6 59.4 15.6 59.4 24.5"/>
  <polygon points="80.4 15.6 66.1 15.6 66.1 21.6 70.1 21.6 70.1 35.7 76.3 35.7 76.3 21.6 80.4 21.6 80.4 15.6"/>
  <path d="M96.7,19.4l-.3-.4c-.7-1.1-1.7-2.1-3-2.8-1.3-.7-2.9-1.1-4.7-1.1s-3,.3-4.2.9c-1.2.6-2.1,1.4-2.8,2.4-.6,1-1,2.2-1,3.4s.2,2.1.7,3c.5.9,1.2,1.7,2.3,2.3,1,.6,2.4,1.1,4.1,1.5.7.2,1.3.3,1.7.5.5.2.6.3.6.4,0,0,.1.2.1.3s0,.3-.3.5c-.2.2-.6.2-1.1.2-.7,0-1.4-.2-2.1-.6-.7-.4-1.3-.9-1.7-1.5l-4.9,2.6.2.4c.5,1,1.2,1.8,2,2.5.8.7,1.7,1.2,2.8,1.6,1,.4,2.2.5,3.4.5s3-.3,4.2-.8c1.2-.6,2.1-1.4,2.8-2.4.7-1,1-2.2,1-3.4s-.3-2.4-.8-3.3c-.5-.9-1.3-1.6-2.4-2.2h0c-1-.6-2.4-1-4-1.4-1.3-.3-1.9-.5-2.1-.7-.3-.2-.3-.3-.3-.4s0-.3.3-.4c.3-.2.6-.2,1.1-.2s1.2.1,1.9.3c.6.2,1.1.6,1.5,1.1l4.9-2.9Z"/>
  <path d="M29.9,15.2c-5.8,0-10.5,4.7-10.5,10.5s4.7,10.5,10.5,10.5,10.5-4.7,10.5-10.5-4.7-10.5-10.5-10.5ZM29.9,30c-2.4,0-4.4-1.9-4.4-4.4s1.9-4.4,4.4-4.4,4.4,1.9,4.4,4.4-1.9,4.4-4.4,4.4Z"/>
</svg>