<?xml version="1.0" encoding="UTF-8"?>
<svg id="Layer_1" xmlns="http://www.w3.org/2000/svg" viewBox="0 0 440 440">

<defs>
<style>

.st0 {
  fill:#E7E7E7;
}

/* spinning text */
.rotatingText {
  transform-origin:220px 220px;
  animation:spin 20s linear infinite;
}

@keyframes spin {
  from {
    transform:rotate(0deg);
  }
  to {
    transform:rotate(360deg);
  }
}


/* shake */
.shake-target {
  cursor:pointer;
  transform-box:fill-box;
  transform-origin:center;
}

.shake-target.shaking {
  animation:shake 60ms linear infinite;
}


@keyframes shake {
  0% {
    transform:translate(0,0) rotate(0deg);
  }

  20% {
    transform:translate(-5px,2px) rotate(-4deg);
  }

  40% {
    transform:translate(5px,-2px) rotate(4deg);
  }

  60% {
    transform:translate(-5px,-2px) rotate(-4deg);
  }

  80% {
    transform:translate(5px,2px) rotate(4deg);
  }

  100% {
    transform:translate(0,0) rotate(0deg);
  }
}

</style>
</defs>

  <g class="rotatingText">
    <path class="st0" d="M248.7,62.4l10.1-37.1,15.3,4.2c2.3.6,4.3,1.7,5.8,3.1,1.5,1.4,2.6,3.1,3.1,5.1s.5,4.1-.1,6.5l-.2.7c-.6,2.3-1.7,4.2-3.2,5.6-1.5,1.4-3.3,2.4-5.3,2.8-2,.4-4.2.4-6.4-.3l-8.3-2.3-3.7,13.6-7-1.9ZM261.2,44.4l7.6,2.1c1.7.5,3.1.4,4.4-.3,1.3-.6,2.1-1.8,2.6-3.3v-.5c.6-1.6.4-3-.4-4.2-.8-1.2-2-2-3.7-2.5l-7.6-2.1-3,10.8Z"/>
    <path class="st0" d="M280.8,72.2l17.3-34.3,6.5,3.3-14.3,28.4,15.7,7.9-3,5.9-22.2-11.2Z"/>
    <path class="st0" d="M305.4,84.5l31.8-23.8,9.9,7.9-16,36.4-5.8-4.6,3.6-7.9-10.7-8.5-6.9,5.3-5.8-4.6ZM323.6,79.7l8.1,6.4,8-17.6-.8-.6-15.3,11.8Z"/>
    <path class="st0" d="M338.1,113.5l10.1-8.6,10.7-26.3,5.2,6.1-7.3,16.9.6.8,17.8-4.5,5.2,6.1-27.7,6.4-10.1,8.6-4.7-5.5Z"/>
    <path class="st0" d="M360.8,145.7l35.2-15.5,9.7,22.1-6,2.6-6.8-15.5-8.5,3.7,6.3,14.3-6,2.6-6.3-14.3-14.6,6.4-2.9-6.6Z"/>
    <path class="st0" d="M374.6,187.5c-1-4.7-.5-8.8,1.5-12.1,2-3.3,5.4-5.5,10.3-6.5l9-1.9c4.8-1,8.8-.4,12,1.9,3.2,2.3,5.3,5.7,6.3,10.5,1,4.7.5,8.8-1.5,12.1-2,3.3-5.4,5.5-10.3,6.5l-9,1.9c-4.8,1-8.8.4-12-1.9-3.2-2.3-5.3-5.7-6.3-10.5ZM380.9,186.1c.6,2.7,1.8,4.6,3.6,5.7,1.8,1.1,4.1,1.5,6.6.9l9.5-2c2.6-.5,4.5-1.7,5.7-3.5,1.2-1.8,1.6-4,1-6.7-.5-2.6-1.7-4.5-3.6-5.7-1.9-1.2-4.1-1.5-6.6-.9l-9.5,2c-2.6.5-4.5,1.7-5.7,3.5-1.2,1.8-1.6,4-1,6.6Z"/>
    <path class="st0" d="M378.9,209.3l38.4.8-.4,16.7c0,2.4-.5,4.5-1.4,6.3-.9,1.8-2.1,3.1-3.7,4.1-1.6,1-3.4,1.4-5.5,1.4h-.7c-2.3,0-4.2-.7-5.6-1.8-1.4-1.1-2.4-2.5-3-4.1h-1c-.1,1.4-.6,2.6-1.6,3.4-1,.8-2.2,1.2-3.7,1.1l-12.6-.3.2-7.2,11.5.2c.9,0,1.6-.2,2.2-.6.6-.4.9-1.2.9-2.3l.2-10.1-14.5-.3.2-7.2ZM399.8,217l-.2,8.7c0,1.7.4,3.1,1.3,4.1.9,1,2.1,1.5,3.7,1.5h.5c1.5,0,2.8-.4,3.7-1.3,1-.9,1.4-2.3,1.5-4l.2-8.7-10.8-.2Z"/>
    <path class="st0" d="M374.2,259.3l36.4,12.4-5.1,15c-.8,2.3-1.9,4.1-3.4,5.6-1.5,1.4-3.3,2.4-5.3,2.8-2,.4-4.1.2-6.4-.5l-.7-.2c-2.3-.8-4-1.9-5.4-3.5s-2.2-3.4-2.5-5.5c-.3-2.1-.1-4.2.6-6.4l2.8-8.1-13.3-4.5,2.3-6.9ZM391.5,272.8l-2.5,7.4c-.6,1.6-.6,3.1,0,4.4.6,1.3,1.6,2.2,3.2,2.8l.5.2c1.6.5,3,.4,4.2-.3,1.2-.7,2.1-1.9,2.7-3.5l2.5-7.4-10.6-3.6Z"/>
    <path class="st0" d="M354.5,303c2.5-4.1,5.7-6.7,9.4-7.7,3.8-1,7.7-.3,12,2.3l7.9,4.8c4.2,2.6,6.7,5.8,7.5,9.6.8,3.8-.1,7.8-2.6,11.9-2.5,4.1-5.7,6.7-9.4,7.7-3.8,1-7.7.3-12-2.3l-7.9-4.8c-4.2-2.6-6.7-5.8-7.5-9.6-.8-3.8.1-7.8,2.6-11.9ZM360,306.4c-1.4,2.3-1.8,4.5-1.3,6.6.6,2.1,2,3.8,4.2,5.2l8.2,5.1c2.2,1.4,4.4,1.8,6.6,1.4,2.1-.5,3.9-1.8,5.3-4.1,1.4-2.3,1.8-4.5,1.3-6.6-.5-2.1-1.9-3.9-4.2-5.2l-8.2-5.1c-2.2-1.4-4.4-1.8-6.6-1.4s-3.9,1.8-5.3,4.1Z"/>
    <path class="st0" d="M341.9,321.9l29,25.2-4.8,5.5-29-25.2,4.8-5.5Z"/>
    <path class="st0" d="M332,333.6l24.5,29.7-10.6,8.8-27.2-21-.8.6,21.3,25.8-5.5,4.5-24.5-29.6,10.6-8.8,27.2,21,.8-.6-21.3-25.8,5.5-4.5Z"/>
    <path class="st0" d="M294.9,360.4l14.5,28.3,10-5.1,3,5.9-26.4,13.5-3-5.9,10-5.1-14.5-28.3,6.4-3.3Z"/>
    <path class="st0" d="M261,373.2c2.9-.8,5.5-1,8-.6,2.5.4,4.6,1.4,6.4,3,1.8,1.6,3,3.7,3.8,6.4l.4,1.5-6.9,1.9-.4-1.5c-.6-2.2-1.8-3.7-3.5-4.4s-3.7-.8-6.1-.1c-2.4.7-4.1,1.6-5,2.9-.9,1.3-1.2,2.7-.8,4.1.3,1,.8,1.8,1.6,2.2.8.5,1.8.8,3,.9s2.7.1,4.4,0h1.3c2.7-.2,5.1-.1,7.1.3,2.1.4,3.8,1.1,5.1,2.3,1.4,1.1,2.4,2.8,3,5.1.6,2.3.6,4.3,0,6.2-.6,1.9-1.8,3.6-3.5,5-1.7,1.4-3.9,2.5-6.5,3.2-2.6.7-5.1.9-7.4.6-2.3-.3-4.3-1.2-6-2.7-1.7-1.5-2.9-3.5-3.6-6.2l-.4-1.6,6.9-1.9.4,1.6c.4,1.4,1,2.5,1.8,3.2.8.7,1.7,1.1,2.9,1.3,1.1.1,2.4,0,3.8-.4,2.1-.6,3.6-1.4,4.4-2.5s1-2.3.6-3.7c-.3-.9-.7-1.6-1.4-2.1-.7-.5-1.5-.8-2.6-1-1.1-.2-2.4-.2-4,0h-1.3c-2.8.2-5.3.2-7.5-.2-2.2-.3-4.1-1.1-5.5-2.2-1.5-1.1-2.6-2.8-3.2-5.1-.6-2.3-.6-4.4,0-6.4s1.9-3.8,3.8-5.4c1.8-1.6,4.2-2.7,7-3.5Z"/>
    <path class="st0" d="M220.8,385.7c1.5,0,2.8.3,4,1,1.2.7,2.2,1.6,2.9,2.8s1.1,2.6,1.1,4.1c0,1.5-.3,2.8-1,4-.7,1.2-1.6,2.1-2.8,2.9-1.2.7-2.6,1.1-4.1,1.1-1.5,0-2.9-.3-4.1-1-1.2-.7-2.1-1.6-2.8-2.8-.7-1.2-1-2.5-1.1-4.1,0-1.5.3-2.9,1-4.1.7-1.2,1.7-2.1,2.9-2.8,1.2-.7,2.5-1,3.9-1.1Z"/>
    <path class="st0" d="M189.4,377.4l-10.1,37.1-15.3-4.1c-2.3-.6-4.3-1.7-5.8-3.1-1.5-1.4-2.6-3.1-3.1-5.1-.5-2-.5-4.1.1-6.5l.2-.7c.6-2.3,1.7-4.2,3.2-5.6,1.5-1.4,3.3-2.4,5.3-2.8,2-.5,4.2-.4,6.5.2l8.3,2.2,3.7-13.6,7,1.9ZM177,395.4l-7.6-2.1c-1.7-.5-3.1-.4-4.4.3-1.3.6-2.1,1.8-2.6,3.3v.5c-.6,1.6-.4,3,.4,4.2.8,1.2,2,2,3.7,2.5l7.6,2.1,2.9-10.8Z"/>
    <path class="st0" d="M157.3,367.7l-17.2,34.4-6.5-3.3,14.3-28.5-15.7-7.9,3-5.9,22.2,11.1Z"/>
    <path class="st0" d="M132.7,355.4l-31.8,23.9-9.9-7.8,16-36.4,5.9,4.6-3.6,7.9,10.8,8.5,6.9-5.3,5.9,4.6ZM114.4,360.3l-8.1-6.4-8,17.6.8.6,15.3-11.8Z"/>
    <path class="st0" d="M99.9,326.5l-10.1,8.6-10.7,26.3-5.2-6.1,7.2-16.9-.6-.8-17.8,4.5-5.2-6.1,27.7-6.4,10.1-8.6,4.7,5.5Z"/>
    <path class="st0" d="M77.1,294.3l-35.2,15.5-9.8-22.1,6-2.7,6.8,15.5,8.5-3.7-6.3-14.3,6-2.7,6.3,14.3,14.6-6.4,2.9,6.6Z"/>
    <path class="st0" d="M63.3,252.6c1,4.7.5,8.8-1.5,12.1-2,3.3-5.4,5.5-10.3,6.5l-9,1.9c-4.8,1-8.8.4-12-1.8-3.2-2.2-5.3-5.7-6.3-10.5-1-4.7-.5-8.8,1.5-12.1,2-3.3,5.4-5.5,10.3-6.5l9-1.9c4.8-1,8.8-.4,12,1.8,3.2,2.2,5.3,5.7,6.3,10.5ZM56.9,253.9c-.6-2.7-1.8-4.5-3.6-5.7-1.8-1.1-4.1-1.4-6.6-.9l-9.5,2c-2.6.5-4.5,1.7-5.7,3.5-1.2,1.8-1.6,4-1,6.7.6,2.6,1.8,4.5,3.6,5.7,1.9,1.2,4.1,1.5,6.7.9l9.5-2c2.6-.5,4.5-1.7,5.7-3.5,1.2-1.8,1.6-4,1-6.6Z"/>
    <path class="st0" d="M58.9,230.7l-38.4-.8.3-16.7c0-2.4.5-4.5,1.4-6.3.9-1.8,2.1-3.1,3.7-4.1,1.6-1,3.4-1.4,5.5-1.4h.7c2.3,0,4.2.6,5.6,1.8,1.4,1.1,2.4,2.5,3.1,4.1h1c.1-1.4.6-2.6,1.6-3.4.9-.8,2.2-1.2,3.7-1.1l12.6.2v7.2c-.1,0-11.7-.2-11.7-.2-.9,0-1.6.2-2.2.6-.6.4-.8,1.2-.9,2.3l-.2,10.1,14.5.3v7.2ZM38,223l.2-8.7c0-1.7-.4-3.1-1.3-4.1s-2.1-1.5-3.7-1.5h-.5c-1.5,0-2.8.4-3.7,1.3-1,.9-1.4,2.3-1.5,4l-.2,8.7,10.8.2Z"/>
    <path class="st0" d="M63.5,180.7l-36.4-12.3,5.1-15c.8-2.3,1.9-4.2,3.4-5.6,1.5-1.4,3.3-2.4,5.3-2.8s4.1-.2,6.4.5l.7.2c2.3.8,4,1.9,5.4,3.5,1.3,1.6,2.2,3.4,2.5,5.5.3,2.1.1,4.2-.6,6.4l-2.7,8.1,13.3,4.5-2.3,6.9ZM46.3,167.3l2.5-7.4c.6-1.6.5-3.1,0-4.4-.6-1.3-1.6-2.2-3.2-2.8l-.5-.2c-1.6-.5-3-.4-4.2.3-1.2.7-2.1,1.9-2.7,3.5l-2.5,7.4,10.6,3.6Z"/>
    <path class="st0" d="M83.2,137c-2.5,4.1-5.7,6.7-9.4,7.8-3.8,1.1-7.7.3-12-2.3l-7.9-4.8c-4.2-2.6-6.7-5.8-7.5-9.6-.8-3.8,0-7.8,2.6-11.9,2.5-4.1,5.7-6.7,9.4-7.8,3.8-1.1,7.7-.3,12,2.3l7.9,4.8c4.2,2.6,6.7,5.8,7.5,9.6.8,3.8,0,7.8-2.6,11.9ZM77.7,133.6c1.4-2.3,1.8-4.5,1.3-6.6-.6-2.1-2-3.8-4.2-5.2l-8.2-5c-2.2-1.4-4.4-1.8-6.6-1.4-2.1.5-3.9,1.8-5.3,4.2-1.4,2.3-1.8,4.5-1.3,6.6s2,3.9,4.2,5.2l8.2,5c2.2,1.4,4.4,1.8,6.6,1.3,2.1-.5,3.9-1.9,5.3-4.1Z"/>
    <path class="st0" d="M95.8,118l-29-25.2,4.8-5.5,29,25.2-4.8,5.5Z"/>
    <path class="st0" d="M105.5,106.4l-24.5-29.6,10.6-8.8,27.3,20.9.8-.6-21.4-25.8,5.5-4.6,24.5,29.6-10.6,8.8-27.3-20.9-.8.6,21.4,25.8-5.5,4.6Z"/>
    <path class="st0" d="M142.6,79.5l-14.6-28.3-10,5.1-3-5.9,26.4-13.6,3,5.9-10,5.1,14.6,28.3-6.4,3.3Z"/>
    <path class="st0" d="M176.5,66.6c-2.9.8-5.5,1-8,.6-2.5-.4-4.6-1.4-6.4-3-1.8-1.6-3-3.7-3.8-6.4l-.4-1.5,6.9-1.9.4,1.5c.6,2.2,1.8,3.7,3.5,4.4,1.7.7,3.7.8,6.1,0,2.4-.7,4.1-1.6,5-2.9s1.2-2.7.8-4.1c-.3-1-.8-1.8-1.6-2.2-.8-.5-1.8-.8-3-.8-1.2,0-2.7,0-4.4,0h-1.3c-2.7.2-5.1.1-7.1-.2-2.1-.4-3.8-1.1-5.1-2.2-1.4-1.1-2.4-2.8-3-5.1-.6-2.3-.6-4.3,0-6.2.6-1.9,1.8-3.6,3.5-5,1.7-1.4,3.9-2.5,6.5-3.2,2.6-.7,5.1-.9,7.4-.6,2.3.3,4.3,1.2,6,2.7,1.7,1.5,2.9,3.5,3.6,6.2l.4,1.6-6.9,1.9-.4-1.6c-.4-1.4-1-2.5-1.8-3.2-.8-.7-1.8-1.1-2.9-1.2-1.1-.1-2.4,0-3.8.4-2.1.6-3.6,1.4-4.3,2.5-.8,1.1-1,2.3-.6,3.7.3.9.7,1.6,1.4,2.1.7.5,1.5.8,2.6,1,1.1.2,2.4.2,4,0h1.3c2.8-.3,5.3-.2,7.5.2,2.2.3,4.1,1.1,5.6,2.2,1.5,1.1,2.6,2.8,3.2,5.1.6,2.3.6,4.4,0,6.4-.7,2-1.9,3.8-3.7,5.4-1.8,1.6-4.2,2.7-7,3.5Z"/>
    <path class="st0" d="M221,54c-1.5,0-2.8-.4-4-1.1-1.2-.7-2.1-1.7-2.8-2.9-.7-1.2-1-2.6-1-4.1,0-1.5.4-2.8,1.1-4,.7-1.2,1.7-2.1,2.9-2.8,1.2-.7,2.6-1,4.1-1,1.5,0,2.9.4,4.1,1.1,1.2.7,2.1,1.6,2.8,2.8.7,1.2,1,2.6,1,4.1,0,1.5-.4,2.9-1.1,4.1-.7,1.2-1.7,2.1-2.9,2.8-1.2.7-2.5,1-4,1Z"/>
  </g>
  <g id="shakeTarget" class="shake-target">
    <path d="M346.4,198.8c4.5,0,9.1.4,13.6,1.3l20-18.3s-15.2-16.4-23.4-28.4l-1.7-2.6c-7.8-12.3-16.9-32.6-16.9-32.6l-24.7,11.2c-7.8,38.5-52.2,66.6-52.2,66.6,0,0-71.9,47.6-115.1,76.2-43.2,28.6-45.1,48.5-45.1,48.5,0,0,1.7.5,5.1.5,8.3,0,26.8-3,57.2-23.1,43.2-28.6,115.1-76.2,115.1-76.2,0,0,33.7-23.3,68.2-23.3Z"/>
    <g>
      <path d="M295.1,272.3c-11.1-7.4-24.2-16-37.4-24.8l-28.2,18.7c16.9,11.2,34.2,22.6,48.4,32.1,43.2,28.6,62.3,22.6,62.3,22.6,0,0-2-20-45.1-48.5Z"/>
      <path d="M162.8,222.1s8.2,5.4,20.5,13.6l28.2-18.7c-18.4-12.2-31.5-20.9-31.5-20.9,0,0-44.3-28.1-52.2-66.6l-24.6-11.2s-9.1,20.3-16.9,32.6l-1.7,2.6c-8.2,12-23.4,28.4-23.4,28.4l20,18.3c38.6-7.8,81.7,22,81.7,22Z"/>
    </g>
  </g>
  <script><![CDATA[

const shakeTarget = document.getElementById("shakeTarget");

shakeTarget.addEventListener("click", function(){

  shakeTarget.classList.remove("shaking");

  // restart animation
  void shakeTarget.offsetWidth;

  shakeTarget.classList.add("shaking");


  setTimeout(function(){

    shakeTarget.classList.remove("shaking");

  },3000);

});

]]></script>
</svg>