<?xml version="1.0" encoding="UTF-8"?>
<svg id="Layer_1" data-name="Layer 1" xmlns="http://www.w3.org/2000/svg" width="540" height="960" viewBox="0 0 540 960">
  <rect x="0" width="540" height="960" fill="#fbfbfb"/>
  <g>
    <path d="M201.421,88.669h0c-2.374-1.147-5.158-1.728-8.274-1.728h-14.921v39.589h12.058v-8.974h2.863c3.118,0,5.902-.582,8.274-1.729,2.417-1.168,4.327-2.918,5.676-5.2,1.339-2.265,2.018-5.084,2.018-8.378s-.679-6.112-2.018-8.379c-1.35-2.281-3.259-4.03-5.675-5.199ZM190.283,98.724h2.533c1.415,0,2.468.299,3.129.89.636.569.945,1.43.945,2.634,0,1.166-.309,2.01-.945,2.579-.661.591-1.714.89-3.13.89h-2.533v-6.992Z"/>
    <rect x="251.853" y="86.94" width="12.058" height="39.589"/>
    <polygon points="288.412 104.371 276.126 86.94 265.232 86.94 265.232 126.529 277.29 126.529 277.29 109.073 289.633 126.529 300.526 126.529 300.526 86.94 288.412 86.94 288.412 104.371"/>
    <polygon points="329.761 86.94 301.626 86.94 301.626 98.724 309.637 98.724 309.637 126.529 321.806 126.529 321.806 98.724 329.761 98.724 329.761 86.94"/>
    <path d="M361.775,94.434l-.509-.828c-1.374-2.236-3.354-4.09-5.886-5.513-2.534-1.422-5.615-2.144-9.156-2.144-3.161,0-5.941.594-8.262,1.764-2.345,1.183-4.179,2.8-5.451,4.807-1.277,2.014-1.925,4.287-1.925,6.755,0,2.212.446,4.214,1.324,5.95.895,1.772,2.402,3.288,4.479,4.505,1.99,1.168,4.684,2.144,8.019,2.901,1.466.315,2.586.637,3.327.956.888.384,1.146.665,1.202.74.139.186.204.389.204.64s-.058.584-.509.94c-.408.321-1.127.491-2.078.491-1.395,0-2.793-.374-4.154-1.112-1.373-.745-2.503-1.74-3.359-2.958l-9.722,5.153.457.846c1.046,1.938,2.376,3.612,3.953,4.975,1.58,1.366,3.415,2.422,5.457,3.141,2.031.715,4.306,1.078,6.763,1.078,3.185,0,5.983-.552,8.316-1.639,2.372-1.107,4.223-2.67,5.502-4.648,1.28-1.981,1.929-4.256,1.929-6.762,0-2.49-.521-4.641-1.548-6.393-1.028-1.753-2.625-3.236-4.747-4.406h0c-2.042-1.126-4.681-2.059-7.841-2.774-2.646-.607-3.741-1.05-4.193-1.315-.538-.315-.611-.611-.611-.859,0-.27.063-.559.525-.846.508-.316,1.239-.476,2.173-.476,1.16,0,2.405.23,3.7.685,1.222.428,2.168,1.111,2.893,2.087l9.729-5.739Z"/>
    <path d="M230.408,86.169c-11.358,0-20.565,9.207-20.565,20.565s9.207,20.565,20.565,20.565,20.565-9.207,20.565-20.565-9.207-20.565-20.565-20.565ZM230.408,115.296c-4.728,0-8.562-3.833-8.562-8.562s3.833-8.562,8.562-8.562,8.562,3.833,8.562,8.562-3.833,8.562-8.562,8.562Z"/>
  </g>
  <g>
    <path d="M540,375.489c-46.366,14.092-80.443,34.69-80.443,34.69,0,0-48.943,28.258-112.576,64.996.075.043.15.086.225.13l-76.981,44.446-.226-.13c-55.495,32.04-112.062,64.699-152.546,88.072-53.538,30.91-92.035,42.761-117.527,46.754L0,597.747c17.545-16.518,42.762-35.821,78.963-56.722,24.703-14.263,55.43-32.003,88.213-50.93l.012.021,111.653-64.462-.013-.022c77.432-44.705,142.237-82.121,142.237-82.121,0,0,77.84-42.875,118.935-110.913v142.89Z" fill="#c2dd00"/>
    <path d="M0,375.488c46.367,14.092,80.442,34.691,80.442,34.691,0,0,32.114,18.542,78.131,45.11l76.983-44.445c-65.591-37.87-116.623-67.332-116.623-67.332,0,0-77.839-42.875-118.934-110.912v142.889Z" fill="#c2dd00"/>
    <path d="M540.07,654.446c-25.494-3.994-63.992-15.847-117.525-46.754-32.042-18.5-74.166-42.819-117.852-68.042l76.981-44.446c29.442,16.998,56.895,32.848,79.362,45.82,36.203,20.902,61.42,40.206,78.965,56.724l.069,56.698Z" fill="#c2dd00"/>
  </g>
  <g>
    <g>
      <path d="M299.631,820.272l-.285-.494c-1.298-2.343-2.753-6.191-2.753-6.191l-4.664,1.793c-1.878,7.008-10.354,11.676-10.354,11.676,0,0-4.835,2.791-10.612,6.127v.002s-8.329,4.809-8.329,4.809v-.002c-2.447,1.412-4.739,2.736-6.582,3.8-8.267,4.773-8.855,8.428-8.855,8.428h0s0,0,0,0c0,0,.438.167,1.375.167,1.696,0,5.027-.547,10.352-3.622,3.02-1.744,7.24-4.18,11.381-6.571l.017.01,5.743-3.316c-.006-.003-.011-.006-.017-.01,4.747-2.741,8.399-4.849,8.399-4.849,0,0,5.873-3.55,11.912-3.55,1.133,0,2.271.125,3.377.421l3.884-3.142s-2.61-3.19-3.989-5.486Z"/>
      <path d="M261.992,835.395l5.743-3.316c-4.893-2.825-8.701-5.023-8.701-5.023,0,0-8.476-4.669-10.354-11.676l-4.664-1.793s-1.454,3.848-2.753,6.191l-.285.494c-1.379,2.297-3.989,5.486-3.989,5.486l3.884,3.142c1.106-.296,2.245-.421,3.377-.421,6.039,0,11.912,3.55,11.912,3.55,0,0,2.396,1.383,5.829,3.365Z"/>
      <path d="M284.557,841.791c-1.676-.968-3.724-2.15-5.921-3.418l-5.743,3.316c3.259,1.882,6.402,3.696,8.792,5.076,5.325,3.074,8.656,3.622,10.352,3.622.937,0,1.375-.167,1.375-.167h0s0,0,0,0c0,0-.589-3.656-8.855-8.428Z"/>
    </g>
    <g>
      <path d="M216.898,821.986c-.246,1.244-.75,2.316-1.511,3.215-.761.9-1.741,1.541-2.938,1.923-1.197.383-2.574.42-4.129.113l-4.354-.861c-2.332-.461-3.995-1.472-4.988-3.033-.993-1.56-1.267-3.464-.823-5.71.44-2.228,1.373-3.835,2.797-4.819,1.424-.984,3.147-1.276,5.168-.877l.104.021-.666,3.369-.207-.041c-.639-.126-1.245-.107-1.816.058-.571.166-1.061.486-1.469.962-.408.476-.693,1.12-.853,1.932-.239,1.21-.055,2.233.551,3.071.606.838,1.549,1.383,2.827,1.636l4.457.881c1.261.249,2.345.105,3.25-.435.905-.539,1.481-1.43,1.727-2.674s.097-2.216-.447-2.916c-.544-.7-1.316-1.149-2.319-1.347l-.259-.051-.851,4.302-2.902-.574,1.517-7.671,9.277,1.834-.625,3.161-1.736-.343-.092.467c.27.179.542.435.818.767.275.333.473.789.591,1.369.118.58.086,1.336-.099,2.269Z" fill="#c2dd00"/>
      <path d="M222.956,805.339c-1.142,2.025-2.606,3.322-4.393,3.891-1.787.569-3.716.27-5.787-.898l-3.866-2.18c-2.071-1.168-3.325-2.664-3.762-4.487-.437-1.823-.085-3.748,1.057-5.772s2.606-3.322,4.393-3.891c1.787-.569,3.716-.27,5.787.898l3.866,2.18c2.071,1.168,3.325,2.664,3.762,4.487.437,1.824.085,3.748-1.057,5.772ZM220.241,803.808c.64-1.135.808-2.202.503-3.204-.305-1.001-1.01-1.813-2.114-2.436l-4.05-2.284c-1.104-.623-2.164-.806-3.178-.549-1.014.257-1.842.953-2.482,2.088-.632,1.12-.797,2.185-.496,3.193.301,1.009,1.003,1.824,2.108,2.447l4.05,2.284c1.104.623,2.166.803,3.184.538,1.019-.264,1.844-.957,2.475-2.077Z" fill="#c2dd00"/>
      <path d="M228.404,796.423l-12.852-13.295,2.507-2.423,10.649,11.015,6.078-5.875,2.203,2.279-8.585,8.299Z" fill="#c2dd00"/>
      <path d="M238.962,786.847l-9.044-16.129,10.138-5.685,1.55,2.765-7.097,3.979,2.184,3.894,6.544-3.669,1.55,2.765-6.543,3.669,3.76,6.705-3.041,1.706Z" fill="#c2dd00"/>
      <path d="M265.154,777.905c-1.42.138-2.698.005-3.834-.398-1.136-.402-2.057-1.048-2.762-1.935-.705-.887-1.122-1.996-1.252-3.329l-.071-.736,3.418-.331.071.736c.107,1.104.529,1.899,1.266,2.385s1.693.672,2.867.558c1.192-.115,2.058-.438,2.6-.969.541-.53.776-1.163.705-1.899-.049-.508-.234-.907-.554-1.194-.32-.287-.765-.505-1.337-.653-.572-.148-1.26-.271-2.066-.37l-.617-.073c-1.289-.158-2.406-.408-3.351-.75-.945-.342-1.692-.84-2.241-1.495-.55-.654-.88-1.542-.988-2.664-.109-1.122.065-2.107.523-2.957.457-.849,1.152-1.536,2.083-2.06.931-.524,2.054-.849,3.369-.977,1.314-.127,2.506-.018,3.575.33,1.069.347,1.939.936,2.613,1.763.673.829,1.074,1.909,1.203,3.241l.076.789-3.418.331-.076-.789c-.068-.701-.259-1.253-.572-1.656-.314-.403-.734-.681-1.262-.833-.528-.152-1.143-.194-1.844-.126-1.052.102-1.808.374-2.269.817s-.659,1.006-.593,1.69c.044.456.2.83.467,1.122.267.293.648.521,1.141.686.494.164,1.116.29,1.868.376l.617.073c1.342.153,2.52.402,3.536.745,1.015.344,1.829.849,2.442,1.515.613.667.974,1.56,1.083,2.682.109,1.122-.081,2.136-.568,3.041-.487.905-1.229,1.65-2.225,2.233-.997.583-2.204.944-3.624,1.081Z" fill="#c2dd00"/>
      <path d="M281.325,778.782c-2.245-.451-3.897-1.434-4.958-2.95-1.061-1.515-1.357-3.439-.888-5.77l.874-4.351c.468-2.331,1.484-3.99,3.048-4.978,1.563-.988,3.467-1.257,5.712-.806,2.227.448,3.827,1.402,4.8,2.864s1.246,3.255.819,5.378l-.031.156-3.367-.677.052-.259c.215-1.07.094-2.011-.363-2.821s-1.298-1.339-2.524-1.585c-1.209-.243-2.233-.062-3.073.541-.84.604-1.388,1.544-1.645,2.822l-.895,4.455c-.253,1.26-.11,2.335.43,3.225.539.89,1.414,1.456,2.622,1.699,1.226.246,2.207.079,2.943-.5s1.21-1.396,1.422-2.449l.094-.466,3.367.676-.073.363c-.427,2.124-1.371,3.672-2.833,4.644-1.462.973-3.307,1.235-5.534.788Z" fill="#c2dd00"/>
      <path d="M296.907,784.613c-2.026-1.14-3.324-2.603-3.895-4.39-.571-1.786-.273-3.716.893-5.787l2.176-3.868c1.166-2.072,2.66-3.327,4.484-3.766,1.823-.439,3.748-.088,5.774,1.052,2.026,1.14,3.324,2.603,3.895,4.39.571,1.786.273,3.715-.893,5.787l-2.176,3.867c-1.166,2.072-2.661,3.328-4.484,3.767-1.823.439-3.748.088-5.774-1.052ZM298.435,781.896c1.136.639,2.204.806,3.205.5,1.001-.306,1.812-1.011,2.434-2.116l2.28-4.052c.622-1.105.804-2.164.546-3.179-.258-1.014-.955-1.841-2.09-2.48-1.121-.631-2.185-.795-3.193-.494-1.009.302-1.823,1.005-2.445,2.11l-2.28,4.052c-.622,1.105-.8,2.167-.534,3.185.265,1.018.958,1.842,2.079,2.473Z" fill="#c2dd00"/>
      <path d="M305.861,789.909l13.539-12.594,5.469,5.88c.791.851,1.333,1.73,1.624,2.638.291.908.328,1.787.11,2.639-.217.852-.694,1.62-1.429,2.303l-.232.216c-.813.756-1.65,1.174-2.513,1.255-.863.081-1.674-.054-2.434-.406l-.348.324c.454.54.649,1.104.584,1.694-.065.589-.368,1.136-.91,1.64l-4.429,4.12-2.375-2.553,4.062-3.779c.309-.288.486-.602.529-.943.043-.341-.109-.699-.457-1.073l-3.31-3.559-5.106,4.75-2.375-2.553ZM315.663,785.553l2.843,3.056c.564.606,1.169.927,1.816.963s1.241-.198,1.782-.702l.193-.18c.542-.504.821-1.076.838-1.717.017-.641-.263-1.271-.838-1.89l-2.843-3.056-3.791,3.526Z" fill="#c2dd00"/>
      <path d="M316.653,802.407l16.509-8.329,5.355,10.613-2.83,1.428-3.784-7.499-3.939,1.987,3.451,6.839-2.83,1.428-3.451-6.839-4.08,2.058,3.855,7.641-2.83,1.428-5.426-10.754Z" fill="#c2dd00"/>
      <path d="M322.836,814.924l3.017-.534.424,2.393,12.173-2.155-.424-2.393,3.018-.534,1.326,7.491c.433,2.445.142,4.414-.872,5.908-1.015,1.494-2.744,2.458-5.189,2.89l-3.433.608c-2.445.433-4.401.122-5.866-.933-1.466-1.055-2.415-2.805-2.847-5.25l-1.326-7.491ZM326.988,820.198l.304,1.717c.246,1.387.789,2.337,1.631,2.85s1.922.653,3.24.419l3.642-.644c1.335-.237,2.306-.74,2.912-1.508.606-.769.786-1.847.541-3.234l-.304-1.717-11.966,2.118Z" fill="#c2dd00"/>
      <path d="M324.831,840.749l2.931.896-.71,2.324,11.822,3.614.711-2.324,2.93.896-2.224,7.275c-.726,2.375-1.88,3.997-3.463,4.867s-3.561.942-5.936.216l-3.334-1.02c-2.375-.726-3.975-1.892-4.8-3.498-.826-1.606-.876-3.596-.15-5.971l2.224-7.275ZM326.133,847.334l-.51,1.667c-.412,1.347-.36,2.441.157,3.28.517.839,1.415,1.455,2.695,1.846l3.537,1.082c1.296.396,2.39.389,3.279-.02.889-.41,1.54-1.288,1.952-2.635l.51-1.667-11.62-3.553Z" fill="#c2dd00"/>
      <path d="M318.58,857.771l16.016,9.242-1.743,3.02-16.016-9.242,1.743-3.02Z" fill="#c2dd00"/>
      <path d="M314.974,863.991l13.915,12.177-7.654,8.747-2.386-2.088,5.358-6.122-3.36-2.94-4.94,5.646-2.386-2.087,4.94-5.646-5.785-5.062,2.296-2.624Z" fill="#c2dd00"/>
      <path d="M305.395,874.272l10.392,15.295-9.614,6.532-1.781-2.622,6.73-4.572-2.509-3.693-6.205,4.216-1.781-2.622,6.205-4.216-4.32-6.359,2.884-1.96Z" fill="#c2dd00"/>
      <path d="M293.565,881.814l6.083,17.462-11.226,3.91-1.043-2.993,7.933-2.763-1.451-4.166-7.234,2.52-1.043-2.993,7.235-2.52-1.503-4.316-8.082,2.815-1.043-2.993,11.375-3.962Z" fill="#c2dd00"/>
      <path d="M279.779,886.261l.958,18.466-8.02.416c-1.161.06-2.183-.09-3.065-.449-.882-.36-1.581-.897-2.094-1.611-.513-.714-.796-1.572-.848-2.574l-.016-.317c-.058-1.108.16-2.018.652-2.732s1.117-1.248,1.874-1.605l-.025-.475c-.705.001-1.263-.212-1.673-.641-.41-.428-.634-1.012-.673-1.751l-.313-6.041,3.482-.181.287,5.54c.022.422.15.759.383,1.012.234.252.605.365,1.115.339l4.854-.252-.361-6.964,3.482-.18ZM276.823,896.572l-4.168.216c-.826.043-1.461.301-1.904.774-.442.472-.645,1.078-.607,1.817l.014.264c.039.739.298,1.32.778,1.745.481.425,1.143.615,1.987.572l4.168-.216-.268-5.171Z" fill="#c2dd00"/>
      <path d="M263.257,886.515l-4.201,18.008-11.576-2.701.72-3.087,8.181,1.909,1.002-4.296-7.46-1.74.72-3.087,7.46,1.74,1.038-4.45-8.335-1.945.72-3.087,11.731,2.737Z" fill="#c2dd00"/>
      <path d="M249.232,882.97l-9.22,16.028-5.747-3.307,4.852-15.798-.412-.237-8.035,13.967-2.977-1.713,9.22-16.028,5.747,3.306-4.852,15.798.412.237,8.035-13.967,2.977,1.713Z" fill="#c2dd00"/>
      <path d="M231.511,870.577l-11.199,10.456,3.678,3.939-2.317,2.163-9.735-10.426,2.317-2.163,3.678,3.939,11.199-10.456,2.38,2.549Z" fill="#c2dd00"/>
      <path d="M224.309,862.079l-16.388,8.564-1.615-3.09,13.579-7.095-3.915-7.492,2.809-1.468,5.53,10.582Z" fill="#c2dd00"/>
      <path d="M217.784,847.393l-6.164,1.592-10.167,9.12-.971-3.759,6.695-5.768-.119-.46-8.651-1.803-.971-3.76,13.312,3.054,6.164-1.592.872,3.376Z" fill="#c2dd00"/>
    </g>
  </g>
  <g>
    <path d="M135.494,161.541v-15.4h6.336c.968,0,1.822.194,2.562.583.741.389,1.32.935,1.738,1.639.418.704.627,1.54.627,2.508v.308c0,.954-.217,1.786-.648,2.497-.434.712-1.02,1.262-1.761,1.65-.74.389-1.58.583-2.519.583h-3.432v5.632h-2.904ZM138.398,153.269h3.146c.689,0,1.246-.19,1.672-.572.426-.381.638-.902.638-1.562v-.22c0-.66-.212-1.181-.638-1.562s-.982-.572-1.672-.572h-3.146v4.488Z"/>
    <path d="M148.87,161.541v-15.4h2.771v15.4h-2.771Z"/>
    <path d="M158.109,161.849c-.777,0-1.474-.136-2.09-.407-.616-.271-1.104-.667-1.463-1.188-.359-.521-.539-1.155-.539-1.903s.18-1.375.539-1.881c.359-.506.858-.887,1.496-1.144s1.367-.385,2.188-.385h2.992v-.616c0-.513-.161-.935-.483-1.265-.323-.33-.836-.495-1.54-.495-.689,0-1.203.158-1.54.473-.338.315-.558.723-.66,1.221l-2.552-.858c.176-.557.458-1.067.847-1.529s.909-.836,1.562-1.122c.653-.286,1.448-.429,2.388-.429,1.437,0,2.574.36,3.41,1.078.836.719,1.254,1.76,1.254,3.124v4.07c0,.44.205.66.615.66h.881v2.288h-1.849c-.543,0-.99-.132-1.342-.396s-.528-.616-.528-1.056v-.022h-.418c-.059.176-.19.407-.396.693-.206.286-.528.539-.968.759-.44.22-1.042.33-1.805.33ZM158.593,159.604c.777,0,1.411-.216,1.903-.649.491-.433.736-1.008.736-1.727v-.22h-2.794c-.514,0-.917.11-1.21.33-.293.22-.439.528-.439.924s.153.719.462.968c.308.25.755.374,1.342.374Z"/>
    <path d="M168.317,165.94v-2.42h5.94c.41,0,.616-.22.616-.66v-2.75h-.396c-.117.25-.301.499-.55.748-.249.25-.587.455-1.012.616-.426.161-.968.242-1.628.242-.851,0-1.596-.194-2.233-.583-.638-.388-1.133-.927-1.484-1.617-.353-.689-.528-1.481-.528-2.376v-6.512h2.771v6.292c0,.822.202,1.438.605,1.848s.979.616,1.727.616c.851,0,1.511-.282,1.98-.847.469-.564.704-1.353.704-2.365v-5.544h2.771v12.848c0,.748-.22,1.345-.66,1.793-.439.447-1.026.671-1.76.671h-6.864Z"/>
    <path d="M189.657,161.849c-.777,0-1.474-.136-2.09-.407-.616-.271-1.104-.667-1.463-1.188-.359-.521-.539-1.155-.539-1.903s.18-1.375.539-1.881c.359-.506.858-.887,1.496-1.144s1.367-.385,2.188-.385h2.992v-.616c0-.513-.161-.935-.483-1.265-.323-.33-.836-.495-1.54-.495-.689,0-1.203.158-1.54.473-.338.315-.558.723-.66,1.221l-2.552-.858c.176-.557.458-1.067.847-1.529s.909-.836,1.562-1.122c.653-.286,1.448-.429,2.388-.429,1.437,0,2.574.36,3.41,1.078.836.719,1.254,1.76,1.254,3.124v4.07c0,.44.205.66.615.66h.881v2.288h-1.849c-.543,0-.99-.132-1.342-.396s-.528-.616-.528-1.056v-.022h-.418c-.059.176-.19.407-.396.693-.206.286-.528.539-.968.759-.44.22-1.042.33-1.805.33ZM190.141,159.604c.777,0,1.411-.216,1.903-.649.491-.433.736-1.008.736-1.727v-.22h-2.794c-.514,0-.917.11-1.21.33-.293.22-.439.528-.439.924s.153.719.462.968c.308.25.755.374,1.342.374Z"/>
    <path d="M202.373,161.541c-.719,0-1.302-.224-1.749-.671s-.671-1.045-.671-1.793v-6.16h-2.728v-2.288h2.728v-3.388h2.772v3.388h2.992v2.288h-2.992v5.676c0,.44.205.66.616.66h2.111v2.288h-3.08Z"/>
    <path d="M213.813,165.94v-15.312h2.728v1.32h.396c.249-.425.638-.803,1.166-1.133s1.283-.495,2.266-.495c.88,0,1.694.217,2.442.649s1.35,1.067,1.804,1.903c.455.836.683,1.848.683,3.036v.352c0,1.188-.228,2.2-.683,3.036-.454.836-1.056,1.471-1.804,1.903-.748.432-1.562.649-2.442.649-.66,0-1.214-.077-1.661-.231-.447-.154-.807-.352-1.077-.594-.272-.242-.488-.487-.649-.737h-.396v5.654h-2.771ZM219.533,159.429c.865,0,1.58-.275,2.146-.825.564-.55.847-1.353.847-2.409v-.22c0-1.056-.286-1.859-.858-2.409-.571-.55-1.283-.825-2.134-.825s-1.562.275-2.134.825c-.572.55-.858,1.353-.858,2.409v.22c0,1.056.286,1.859.858,2.409s1.283.825,2.134.825Z"/>
    <path d="M233.041,161.849c-1.086,0-2.062-.22-2.927-.66s-1.547-1.078-2.046-1.914-.748-1.84-.748-3.014v-.352c0-1.173.249-2.178.748-3.014s1.181-1.474,2.046-1.914,1.841-.66,2.927-.66,2.06.22,2.926.66c.865.44,1.547,1.078,2.046,1.914.498.836.748,1.841.748,3.014v.352c0,1.173-.25,2.178-.748,3.014-.499.836-1.181,1.474-2.046,1.914-.866.44-1.841.66-2.926.66ZM233.041,159.385c.85,0,1.554-.275,2.111-.825s.836-1.338.836-2.365v-.22c0-1.026-.274-1.815-.824-2.365-.551-.55-1.258-.825-2.123-.825-.852,0-1.556.275-2.112.825-.558.55-.836,1.339-.836,2.365v.22c0,1.027.278,1.815.836,2.365.557.55,1.261.825,2.112.825Z"/>
    <path d="M242.698,149.353c-.499,0-.92-.161-1.265-.484s-.518-.748-.518-1.276.173-.953.518-1.276c.345-.322.766-.484,1.265-.484.514,0,.938.162,1.276.484.337.323.506.748.506,1.276s-.169.954-.506,1.276c-.338.323-.763.484-1.276.484ZM241.312,161.541v-10.912h2.771v10.912h-2.771Z"/>
    <path d="M247.164,161.541v-10.912h2.728v1.43h.396c.176-.381.506-.744.99-1.089.483-.345,1.217-.517,2.199-.517.851,0,1.596.194,2.233.583s1.133.924,1.485,1.606c.352.682.527,1.478.527,2.387v6.512h-2.771v-6.292c0-.821-.202-1.437-.605-1.848-.403-.41-.979-.616-1.727-.616-.851,0-1.511.282-1.98.847-.469.565-.704,1.353-.704,2.365v5.544h-2.771Z"/>
    <path d="M264.587,161.541c-.719,0-1.302-.224-1.749-.671s-.671-1.045-.671-1.793v-6.16h-2.728v-2.288h2.728v-3.388h2.772v3.388h2.992v2.288h-2.992v5.676c0,.44.205.66.616.66h2.111v2.288h-3.08Z"/>
    <path d="M274.973,161.849c-1.423,0-2.589-.308-3.498-.924-.911-.616-1.46-1.496-1.651-2.64l2.552-.66c.103.514.275.917.518,1.21.242.293.542.502.901.627.359.125.752.187,1.178.187.645,0,1.122-.113,1.43-.341s.462-.51.462-.847-.146-.597-.439-.781c-.294-.184-.764-.333-1.408-.451l-.616-.11c-.763-.146-1.46-.348-2.09-.605-.631-.256-1.137-.612-1.519-1.067-.381-.454-.571-1.041-.571-1.76,0-1.085.396-1.917,1.188-2.497.792-.579,1.833-.869,3.124-.869,1.218,0,2.229.272,3.036.814s1.334,1.254,1.584,2.134l-2.574.792c-.117-.557-.355-.953-.715-1.188-.359-.234-.803-.352-1.331-.352s-.932.092-1.21.275c-.278.184-.418.437-.418.759,0,.352.146.612.44.781.293.169.688.297,1.188.385l.616.11c.821.147,1.565.341,2.233.583.667.242,1.194.587,1.584,1.034.388.447.583,1.052.583,1.815,0,1.144-.415,2.028-1.243,2.651-.829.624-1.94.935-3.333.935Z"/>
    <path d="M281.439,156.128v-.352c0-1.144.228-2.123.683-2.937.454-.814,1.06-1.437,1.814-1.87.756-.433,1.58-.649,2.476-.649.997,0,1.752.176,2.266.528s.888.719,1.122,1.1h.396v-1.32h2.729v12.848c0,.748-.22,1.345-.66,1.793-.439.447-1.026.671-1.76.671h-7.304v-2.42h6.336c.41,0,.615-.22.615-.66v-2.838h-.396c-.146.235-.353.473-.616.715-.264.242-.616.444-1.056.605-.44.162-.998.242-1.672.242-.896,0-1.72-.216-2.476-.649-.755-.433-1.36-1.056-1.814-1.87-.455-.814-.683-1.793-.683-2.937ZM287.204,159.165c.85,0,1.562-.271,2.134-.814s.857-1.305.857-2.288v-.22c0-.997-.282-1.763-.847-2.299-.564-.535-1.279-.803-2.145-.803-.852,0-1.562.268-2.135.803-.571.536-.857,1.302-.857,2.299v.22c0,.983.286,1.746.857,2.288.572.542,1.283.814,2.135.814Z"/>
    <path d="M301.196,161.849c-1.086,0-2.062-.22-2.927-.66s-1.547-1.078-2.046-1.914-.748-1.84-.748-3.014v-.352c0-1.173.249-2.178.748-3.014s1.181-1.474,2.046-1.914,1.841-.66,2.927-.66,2.06.22,2.926.66c.865.44,1.547,1.078,2.046,1.914.498.836.748,1.841.748,3.014v.352c0,1.173-.25,2.178-.748,3.014-.499.836-1.181,1.474-2.046,1.914-.866.44-1.841.66-2.926.66ZM301.196,159.385c.85,0,1.554-.275,2.111-.825s.836-1.338.836-2.365v-.22c0-1.026-.274-1.815-.824-2.365-.551-.55-1.258-.825-2.123-.825-.852,0-1.556.275-2.112.825-.558.55-.836,1.339-.836,2.365v.22c0,1.027.278,1.815.836,2.365.557.55,1.261.825,2.112.825Z"/>
    <path d="M309.468,161.541v-15.4h2.771v15.4h-2.771Z"/>
    <path d="M317.123,161.541v-8.624h-2.771v-2.288h2.771v-2.024c0-.748.224-1.345.671-1.793.447-.447,1.03-.671,1.749-.671h2.86v2.288h-1.892c-.411,0-.616.22-.616.66v1.54h2.859v2.288h-2.859v8.624h-2.772Z"/>
    <path d="M325.154,161.849c-.587,0-1.082-.195-1.485-.583-.403-.389-.604-.891-.604-1.507s.201-1.118.604-1.507c.403-.388.898-.583,1.485-.583.601,0,1.1.195,1.496.583.396.389.594.891.594,1.507s-.198,1.119-.594,1.507c-.396.388-.896.583-1.496.583Z"/>
    <path d="M334.966,161.849c-1.056,0-2.013-.22-2.871-.66s-1.536-1.078-2.035-1.914-.748-1.848-.748-3.036v-.308c0-1.188.249-2.2.748-3.036s1.177-1.474,2.035-1.914,1.815-.66,2.871-.66c1.041,0,1.936.184,2.684.55s1.354.869,1.815,1.507c.462.638.767,1.361.913,2.167l-2.685.572c-.059-.44-.19-.836-.396-1.188-.206-.352-.495-.631-.869-.836-.374-.205-.84-.308-1.396-.308s-1.061.121-1.508.363c-.447.242-.799.602-1.056,1.078s-.385,1.06-.385,1.749v.22c0,.69.128,1.273.385,1.749.257.477.608.836,1.056,1.078s.95.363,1.508.363c.836,0,1.47-.216,1.902-.649.433-.432.708-1.001.825-1.705l2.684.638c-.19.778-.517,1.485-.979,2.123s-1.067,1.141-1.815,1.507c-.748.367-1.643.55-2.684.55Z"/>
    <path d="M347.924,161.849c-1.086,0-2.062-.22-2.927-.66s-1.547-1.078-2.046-1.914-.748-1.84-.748-3.014v-.352c0-1.173.249-2.178.748-3.014s1.181-1.474,2.046-1.914,1.841-.66,2.927-.66,2.06.22,2.926.66c.865.44,1.547,1.078,2.046,1.914.498.836.748,1.841.748,3.014v.352c0,1.173-.25,2.178-.748,3.014-.499.836-1.181,1.474-2.046,1.914-.866.44-1.841.66-2.926.66ZM347.924,159.385c.85,0,1.554-.275,2.111-.825s.836-1.338.836-2.365v-.22c0-1.026-.274-1.815-.824-2.365-.551-.55-1.258-.825-2.123-.825-.852,0-1.556.275-2.112.825-.558.55-.836,1.339-.836,2.365v.22c0,1.027.278,1.815.836,2.365.557.55,1.261.825,2.112.825Z"/>
    <path d="M356.195,161.541v-10.912h2.728v1.188h.396c.19-.366.506-.686.946-.957.439-.271,1.019-.407,1.737-.407.777,0,1.4.15,1.87.451.47.301.829.693,1.078,1.177h.396c.249-.469.601-.858,1.056-1.166.454-.308,1.1-.462,1.936-.462.675,0,1.287.143,1.838.429.55.286.989.719,1.319,1.298s.495,1.309.495,2.189v7.172h-2.771v-6.974c0-.601-.154-1.052-.463-1.353-.308-.3-.74-.451-1.298-.451-.631,0-1.118.202-1.463.605s-.517.979-.517,1.727v6.446h-2.772v-6.974c0-.601-.153-1.052-.462-1.353-.308-.3-.74-.451-1.298-.451-.631,0-1.118.202-1.463.605s-.518.979-.518,1.727v6.446h-2.771Z"/>
    <path d="M376.722,161.849c-.587,0-1.082-.195-1.485-.583-.403-.389-.604-.891-.604-1.507s.201-1.118.604-1.507c.403-.388.898-.583,1.485-.583.601,0,1.1.195,1.496.583.396.389.594.891.594,1.507s-.198,1.119-.594,1.507c-.396.388-.896.583-1.496.583Z"/>
    <path d="M384.927,161.849c-.777,0-1.474-.136-2.09-.407-.616-.271-1.104-.667-1.463-1.188-.359-.521-.539-1.155-.539-1.903s.18-1.375.539-1.881c.359-.506.858-.887,1.496-1.144s1.367-.385,2.188-.385h2.992v-.616c0-.513-.161-.935-.483-1.265-.323-.33-.836-.495-1.54-.495-.689,0-1.203.158-1.54.473-.338.315-.558.723-.66,1.221l-2.552-.858c.176-.557.458-1.067.847-1.529s.909-.836,1.562-1.122c.653-.286,1.448-.429,2.388-.429,1.437,0,2.574.36,3.41,1.078.836.719,1.254,1.76,1.254,3.124v4.07c0,.44.205.66.615.66h.881v2.288h-1.849c-.543,0-.99-.132-1.342-.396s-.528-.616-.528-1.056v-.022h-.418c-.059.176-.19.407-.396.693-.206.286-.528.539-.968.759-.44.22-1.042.33-1.805.33ZM385.411,159.604c.777,0,1.411-.216,1.903-.649.491-.433.736-1.008.736-1.727v-.22h-2.794c-.514,0-.917.11-1.21.33-.293.22-.439.528-.439.924s.153.719.462.968c.308.25.755.374,1.342.374Z"/>
    <path d="M398.104,161.716c-.851,0-1.596-.194-2.233-.583-.638-.388-1.133-.927-1.484-1.617-.353-.689-.528-1.481-.528-2.376v-6.512h2.771v6.292c0,.822.202,1.438.605,1.848s.979.616,1.727.616c.851,0,1.511-.282,1.98-.847.469-.564.704-1.353.704-2.365v-5.544h2.771v10.912h-2.728v-1.43h-.396c-.176.367-.506.726-.989,1.078-.484.352-1.218.528-2.2.528Z"/>
  </g>
</svg>